<svg width="138" height="48" viewBox="0 0 138 48" fill="none" xmlns="http://www.w3.org/2000/svg">
<path d="M15.6905 20.2444C16.9534 20.2444 25.1497 23.8307 25.1497 36.7127C25.1497 42.8689 23.0582 48 21.8256 48C21.2813 48 21.075 47.4613 21.075 46.4259C21.075 44.1465 21.8854 42.1274 21.8854 37.2626C21.8854 27.869 17.9823 24.079 16.2349 21.9457C15.7191 21.3141 15.3282 20.9034 15.3282 20.5323C15.3282 20.3811 15.4365 20.2444 15.6905 20.2444ZM36.3494 20.5323C36.3494 20.9034 35.9585 21.3141 35.4428 21.9457C33.6962 24.079 29.7948 27.869 29.7948 37.2609C29.7948 42.1265 30.6018 44.1456 30.6018 46.4259C30.6018 47.4613 30.3955 48 29.8529 48C28.6177 48 26.527 42.8689 26.527 36.7127C26.527 23.8307 34.7251 20.2444 35.9897 20.2444C36.242 20.2444 36.3494 20.3811 36.3494 20.5323Z" fill="#0982C6"/>
<path d="M22.8467 22.8229C22.8467 24.5052 24.185 25.867 25.8371 25.867C27.4944 25.867 28.8344 24.5052 28.8344 22.8229C28.8344 21.1389 27.4944 19.7788 25.8379 19.7788C24.185 19.7788 22.8467 21.1389 22.8467 22.8229Z" fill="#F8971F"/>
<path d="M10.2922 18.0105C8.72764 17.3094 7.55575 15.9038 7.36506 14.5402C8.52655 13.7824 10.3615 13.724 11.9269 14.4259C13.5652 15.1606 13.9491 16.4021 13.9587 17.4941C13.124 18.2107 11.9321 18.7469 10.2922 18.0105ZM14.7804 9.81291C13.7732 8.27924 13.5392 6.33745 14.1624 4.99624C15.6541 4.97648 17.3478 5.98002 18.3533 7.51197C19.4038 9.11868 19.025 10.4607 18.394 11.4531C17.2204 11.6207 15.8309 11.4196 14.7804 9.81291ZM17.1103 17.9349C15.8691 16.8918 15.1713 15.3101 15.3551 14.017C16.6119 13.6269 18.3013 14.0479 19.5425 15.0892C20.8427 16.1839 20.8635 17.4125 20.5852 18.4109C19.637 18.8448 18.4105 19.0252 17.1103 17.9341M20.9077 14.0092C20.3737 12.2977 20.6745 10.4032 21.6254 9.30083C23.0374 9.6763 24.3636 11.0759 24.8975 12.7875C25.4566 14.5806 24.7345 15.7448 23.8738 16.5138C22.7253 16.3609 21.4642 15.8024 20.9077 14.0092ZM14.3678 26.5063C13.1318 26.7451 11.8273 26.3937 11.1269 25.6574C11.4953 24.7123 12.5762 23.9046 13.8139 23.6666C15.1098 23.4175 15.8717 23.9991 16.3467 24.6513C16.1516 25.4331 15.668 26.2545 14.3678 26.5063ZM11.1 22.8762C9.69151 22.7249 8.40867 21.9225 7.9042 20.9C8.61583 20.0082 10.0452 19.4952 11.4545 19.6464C12.9307 19.8054 13.553 20.6818 13.8451 21.5367C13.3736 22.3125 12.577 23.0351 11.1 22.8762ZM10.9743 12.5082C9.8692 11.5786 9.24945 10.1738 9.41327 9.02502C10.5288 8.67619 12.031 9.05166 13.1361 9.97787C14.2898 10.9505 14.3115 12.0425 14.0636 12.9309C13.2184 13.3176 12.1298 13.4774 10.9743 12.5082ZM18.505 5.13887C18.0594 3.7126 18.3125 2.13167 19.103 1.21491C20.2819 1.53023 21.3879 2.69531 21.8334 4.11986C22.2989 5.61486 21.6956 6.58318 20.977 7.22758C20.0192 7.0987 18.973 6.63473 18.5058 5.13973M0 42.1489C0 42.1875 0.0251367 42.2185 0.0745434 42.2185C0.120483 42.2185 0.203694 42.1815 0.29384 42.1497C4.71617 40.5774 11.2457 38.6476 20.4093 38.0599C20.4206 37.9774 20.4743 37.5728 20.4743 37.2609C20.4743 36.6036 20.3963 35.9179 20.3755 35.8037C10.9856 36.6577 4.50467 39.3565 0.247033 41.9504C0.0736766 42.0569 0 42.081 0 42.1489ZM37.7215 17.4933C37.7311 16.4021 38.1133 15.1597 39.7516 14.4251C41.3152 13.7231 43.1528 13.7807 44.3134 14.5394C44.1219 15.9029 42.9517 17.3086 41.3881 18.0088C39.7464 18.7451 38.5554 18.2099 37.7215 17.4933ZM33.2854 11.4523C32.6561 10.4599 32.2756 9.11696 33.3278 7.51026C34.3324 5.97916 36.0253 4.97562 37.5179 4.99538C38.1393 6.33659 37.9036 8.27838 36.8998 9.81205C35.8493 11.4188 34.4572 11.6198 33.2854 11.4523ZM31.0924 18.4101C30.8159 17.4117 30.8367 16.183 32.1369 15.0884C33.3798 14.047 35.0666 13.626 36.3252 14.017C36.5072 15.3083 35.8103 16.891 34.5682 17.9332C33.2706 19.0244 32.0407 18.8439 31.0924 18.4101ZM27.8047 16.5138C26.944 15.7448 26.2228 14.5806 26.7819 12.7866C27.3132 11.0759 28.6455 9.67716 30.0549 9.30083C31.0057 10.4032 31.3065 12.2969 30.7725 14.0092C30.2135 15.8024 28.9575 16.3609 27.8047 16.5138ZM35.3344 24.6521C35.8094 24.0017 36.5679 23.4175 37.8663 23.6675C39.1058 23.9055 40.1841 24.7149 40.5533 25.6583C39.8547 26.3946 38.5485 26.7451 37.3107 26.5071C36.0123 26.2554 35.526 25.4331 35.3344 24.6521ZM37.8351 21.5375C38.1272 20.6826 38.7504 19.8062 40.2266 19.6473C41.6351 19.4961 43.0627 20.0107 43.7743 20.9017C43.2707 21.9225 41.987 22.7258 40.5802 22.877C39.1023 23.036 38.304 22.3134 37.8351 21.5375ZM37.6158 12.9318C37.367 12.0434 37.387 10.9513 38.5441 9.97787C39.6493 9.05252 41.1505 8.67619 42.2661 9.02588C42.4291 10.1746 41.8093 11.5794 40.705 12.5082C39.5505 13.4791 38.4592 13.3193 37.6158 12.9318ZM30.7015 7.22844C29.9829 6.58404 29.3814 5.61572 29.8477 4.12072C30.2915 2.69617 31.3992 1.53109 32.572 1.21577C33.3694 2.13339 33.6182 3.71346 33.1744 5.13973C32.7081 6.63473 31.6601 7.09956 30.7015 7.22844ZM51.4315 41.9512C47.1756 39.3573 40.6946 36.6586 31.3039 35.8045C31.2412 36.2878 31.2082 36.7745 31.2051 37.2617C31.2051 37.5736 31.2597 37.9783 31.2701 38.0608C40.4329 38.6493 46.9606 40.5782 51.3864 42.1506C51.4774 42.1824 51.5624 42.2193 51.6031 42.2193C51.6551 42.2193 51.6811 42.1875 51.6811 42.1506C51.6811 42.0818 51.6031 42.0578 51.4315 41.9512ZM25.8388 8.72774C24.6227 8.16668 23.4248 7.12362 23.4248 4.95586C23.4248 2.88519 24.4104 0.893567 25.8397 0C27.269 0.893567 28.2545 2.88433 28.2545 4.955C28.2545 7.12362 27.0584 8.16668 25.8388 8.72774Z" fill="#56B948"/>
<path d="M71.7003 16.0567C71.7003 17.3335 72.7613 18.3688 74.0753 18.3688C75.3859 18.3688 76.4486 17.3335 76.4486 16.0567C76.4486 14.7808 75.3859 13.7472 74.0744 13.7472C72.7613 13.7472 71.7003 14.7808 71.7003 16.0567ZM90.2374 28.2255C90.2374 31.8746 88.7985 33.3945 86.7165 33.3945C84.6163 33.3945 83.44 31.628 83.44 28.5297C83.44 25.3678 85.2646 22.7542 88.6442 22.7542C89.3411 22.7542 89.8282 22.8229 90.2374 22.9208V28.2255ZM90.4402 34.2107V35.3964C90.4402 38.6485 88.4197 39.9115 85.9121 39.9115C83.6585 39.9115 81.996 39.2387 81.4699 39.0575V42.2752C81.898 42.3894 83.7287 42.9599 86.3403 42.9599C90.9776 42.9599 94.0764 41.0628 94.0764 34.5604V20.528C93.4817 20.3785 91.3044 19.8063 88.7976 19.8063C82.2924 19.8063 79.4971 24.128 79.4971 28.8038C79.4971 33.1024 81.6787 36.4721 85.8575 36.4721C88.613 36.4721 89.9375 34.8225 90.3682 34.2107H90.4402ZM68.3199 32.226C67.2754 32.7114 65.6042 33.031 63.9868 33.031C59.5766 33.031 56.3288 29.9036 56.3288 25.1384C56.3288 20.4051 59.5541 17.2407 63.9868 17.2407C66.1841 17.2407 67.7478 17.7734 68.3207 18.0432V14.6373C67.356 14.2825 65.7915 13.9242 63.5794 13.9242C56.7362 13.9242 52.1353 18.6154 52.1353 25.1402C52.1353 31.3066 56.3687 36.3493 63.5803 36.3493C65.6953 36.3493 67.2867 36.0168 68.3199 35.6335V32.226ZM126.4 28.2255C126.4 31.8746 124.96 33.3945 122.879 33.3945C120.778 33.3945 119.594 31.628 119.594 28.5297C119.594 25.3678 121.429 22.7542 124.806 22.7542C125.342 22.7457 125.878 22.8017 126.4 22.9208V28.2255ZM130.722 36.1164C130.598 35.228 130.239 32.8824 130.239 30.8633V20.528C129.639 20.3785 127.461 19.8063 124.96 19.8063C118.451 19.8063 115.659 24.128 115.659 28.8038C115.659 33.1024 117.834 36.4721 122.016 36.4721C125.071 36.4721 126.439 34.5149 126.955 33.4709H127.056C127.095 33.9667 127.232 35.6507 127.278 36.1173H130.724L130.722 36.1164ZM75.9961 20.2135H72.158V36.1156H75.9961V20.2135ZM98.4215 36.1156V25.1127C98.4215 23.6374 98.2863 20.8081 98.2473 20.1663H101.695L101.857 22.4027H101.929C102.33 21.7773 103.621 19.8063 106.629 19.8063C110.262 19.8063 112.281 22.4526 112.281 25.7502V36.1164H108.445V26.502C108.445 24.4769 107.31 22.9466 105.354 22.9466C103.338 22.9466 102.263 24.5619 102.263 26.502V36.1156H98.4215ZM136.355 33.3833C136.257 33.3275 136.096 33.3017 135.88 33.3017H135.545V34.0973H135.9C136.026 34.1036 136.153 34.0876 136.274 34.05C136.427 33.9899 136.504 33.8756 136.504 33.7047C136.504 33.5448 136.454 33.4383 136.355 33.3833ZM135.932 33.0371C136.207 33.0371 136.411 33.0628 136.538 33.1144C136.77 33.2123 136.883 33.3953 136.883 33.6729C136.883 33.8705 136.811 34.0183 136.667 34.1085C136.569 34.1656 136.46 34.2018 136.347 34.215C136.499 34.2305 136.638 34.3095 136.729 34.4324C136.803 34.531 136.845 34.6497 136.85 34.7726V34.9342C136.85 34.9857 136.85 35.0398 136.853 35.0974C136.853 35.1369 136.861 35.1765 136.874 35.2134L136.886 35.2392H136.52L136.515 35.2177C136.514 35.2108 136.51 35.2022 136.51 35.1928L136.502 35.1232V34.9488C136.502 34.6944 136.43 34.5252 136.292 34.4436C136.208 34.3989 136.062 34.3714 135.856 34.3714H135.547V35.2392H135.155V33.0371H135.933H135.932ZM134.739 32.9254C134.575 33.0839 134.446 33.2738 134.359 33.4837C134.272 33.6935 134.229 33.9187 134.234 34.1454C134.234 34.6266 134.402 35.039 134.739 35.3767C135.06 35.7092 135.508 35.8939 135.972 35.8862C136.455 35.8862 136.868 35.716 137.207 35.3767C137.542 35.0398 137.712 34.6266 137.712 34.148C137.712 33.6686 137.542 33.2613 137.207 32.9245C137.047 32.7606 136.855 32.6309 136.643 32.5434C136.43 32.4559 136.202 32.4125 135.972 32.4159C135.743 32.4121 135.515 32.4553 135.303 32.5429C135.09 32.6304 134.899 32.7603 134.74 32.9245L134.739 32.9254ZM137.405 35.5683C137.22 35.7588 136.997 35.9096 136.751 36.0111C136.504 36.1127 136.239 36.1629 135.972 36.1585C135.706 36.163 135.441 36.1129 135.194 36.0113C134.948 35.9098 134.725 35.7589 134.54 35.5683C134.35 35.383 134.199 35.1612 134.098 34.9165C133.997 34.6717 133.947 34.4091 133.951 34.1446C133.951 33.5912 134.151 33.1187 134.544 32.7269C134.729 32.5378 134.951 32.3882 135.197 32.2875C135.443 32.1867 135.706 32.1368 135.972 32.1409C136.239 32.1363 136.504 32.186 136.75 32.2867C136.996 32.3875 137.219 32.5373 137.405 32.7269C137.802 33.1161 138 33.5895 138 34.1437C138.004 34.4088 137.954 34.672 137.851 34.917C137.749 35.162 137.597 35.3837 137.405 35.5683Z" fill="#0982C6"/>
</svg>
