<svg width="388" height="122" viewBox="0 0 388 122" fill="none" xmlns="http://www.w3.org/2000/svg">
<path fill-rule="evenodd" clip-rule="evenodd" d="M115.02 54.4195C112.514 52.2581 104.639 53.1034 89.4541 53.8767C92.4519 42.3877 94.5916 32.3588 100.19 24.5441C126.195 25.865 158.153 29.1743 194.756 29.0783C266.813 28.891 267.464 4.55841 267.464 4.55841C236.804 12.57 194.692 10.2021 162.846 7.54114C122.858 4.20779 82.8655 -4.14002 49.8269 3.87157C10.8087 13.3337 7.05361 39.6067 8.44655 50.8796C24.1025 32.2483 45.2773 25.62 72.4052 24.2271C74.9739 24.0975 77.6804 24.0494 80.445 24.0302C75.5194 28.7132 71.6955 36.0908 67.7338 47.5943C66.8758 50.1159 66.0337 52.5271 65.2022 54.8902C31.8352 57.5175 25.3578 71.3408 27.2751 74.9672C29.3141 78.8289 41.1515 73.7664 55.9283 72.2774C56.871 72.1814 57.782 72.1045 58.6824 72.0181C52.9094 85.5484 46.5326 95.2123 36.2682 100.861C20.6175 109.468 4.24125 105.486 0.95752 103.094C2.22864 118.887 28.4138 127.494 50.669 116.447C68.4118 107.648 78.6761 86.6387 84.3008 70.8941C89.1944 70.88 94.0867 70.7407 98.9717 70.4763C112.398 69.6597 118.293 57.2485 115.02 54.4243M384.286 36.7296C383.622 36.5369 382.923 36.4652 382.229 36.5188C381.535 36.5724 380.859 36.7501 380.241 37.0417C379.624 37.3333 379.075 37.733 378.629 38.2178C378.182 38.7025 377.845 39.2627 377.639 39.8661C377.22 41.0668 377.342 42.3156 377.872 43.3723C372.824 47.5606 368.158 50.6634 365.701 49.943C362.523 49.0112 364.928 41.1773 368.031 34.0351C369.393 34.2234 370.783 33.9624 371.951 33.2995C373.118 32.6367 373.984 31.6161 374.392 30.4231C374.861 29.0938 374.732 27.6504 374.034 26.4066C373.336 25.1628 372.125 24.219 370.664 23.7805C369.941 23.5706 369.18 23.4925 368.424 23.5508C367.668 23.6091 366.932 23.8026 366.259 24.12C365.586 24.4375 364.989 24.8728 364.502 25.4006C364.015 25.9284 363.649 26.5385 363.423 27.1955C362.735 29.1647 363.376 31.2301 364.88 32.5845C360.749 39.453 356.443 45.3944 352.672 44.3954L352.534 44.3618C348.742 43.2474 348.991 36.086 349.981 28.2473C352.1 27.9736 353.975 26.6191 354.669 24.6258C355.139 23.297 355.012 21.8536 354.314 20.6096C353.617 19.3656 352.406 18.4216 350.945 17.9831C350.222 17.7725 349.461 17.6939 348.704 17.7518C347.947 17.8097 347.211 18.003 346.537 18.3206C345.864 18.6381 345.266 19.0736 344.779 19.6018C344.292 20.13 343.925 20.7406 343.7 21.3981C342.831 23.8813 344.071 26.523 346.507 27.6902C344.51 35.159 341.497 42.8104 338.319 41.8786C335.877 41.1581 334.05 36.1821 332.599 30.1109C333.506 29.6498 334.246 28.9592 334.728 28.1234C335.21 27.2875 335.414 26.3425 335.314 25.4036C335.214 24.4646 334.815 23.5724 334.165 22.8356C333.516 22.0987 332.644 21.5492 331.656 21.254C330.992 21.0614 330.293 20.9899 329.598 21.0438C328.904 21.0977 328.228 21.2758 327.61 21.5679C326.992 21.86 326.444 22.2602 325.998 22.7455C325.551 23.2308 325.215 23.7915 325.009 24.3952C324.78 25.0453 324.705 25.7318 324.789 26.4099C324.872 27.088 325.112 27.7426 325.492 28.3311C325.873 28.9197 326.386 29.4289 326.998 29.8258C327.61 30.2226 328.308 30.4982 329.045 30.6345L329.982 50.9901L366.718 61.8115L380.393 45.721C381.075 46.0174 381.82 46.1771 382.576 46.1893C383.333 46.2014 384.083 46.0657 384.777 45.7914C385.47 45.517 386.09 45.1105 386.595 44.5994C387.1 44.0884 387.477 43.4847 387.702 42.8296C388.597 40.2791 387.066 37.5462 384.286 36.7296Z" fill="black"/>
<path fill-rule="evenodd" clip-rule="evenodd" d="M342.068 93.4643C335.252 104.444 325.512 110.035 320.322 105.962C315.131 101.889 316.455 89.6842 323.272 78.7043C330.088 67.7292 339.823 62.1336 345.013 66.2114C350.204 70.2845 348.885 82.4892 342.068 93.4643ZM332.816 55.7359C332.816 55.7359 324.082 58.7138 318.007 63.93C315.942 65.7071 313.95 67.5467 312.144 69.588L312.107 69.6361C310.428 71.5381 309.115 73.5746 307.711 75.7552C305.751 78.7716 304.041 81.9512 302.69 85.2798V85.2654C302.69 85.2654 299.173 91.9993 296.599 95.3615C294.099 98.6276 289.354 101.75 287.458 102.931C285.24 103.869 282.947 104.654 280.599 105.28C265.001 109.406 262.136 99.228 265.626 94.4249C266.882 92.7006 275.515 86.6823 281.415 82.2298C292.828 73.6322 300.651 68.1759 306.021 63.2287C311.71 57.9933 308.034 55.1018 303.617 54.4102C292.601 52.6859 287.558 55.3564 284.349 57.854C280.483 60.8656 257.417 86.0867 257.417 86.0867C257.417 86.0867 294.957 20.2121 301.117 8.88635C306.202 -0.446087 281.807 -1.73812 275.07 11.6866C271.15 19.4964 244.245 76.029 240.961 83.0223C234.955 95.8082 234.595 97.8063 231.592 100.045C231.562 100.078 231.533 100.114 231.507 100.15L231.274 100.285C231.264 100.285 231.258 100.294 231.248 100.304C228.356 102.47 224.309 104.425 221.608 104.387C219.982 104.372 219.024 103.488 218.748 101.678C218.468 99.8716 218.706 97.5661 219.463 94.7611C219.914 93.0896 220.512 91.2596 221.275 89.2712C222.032 87.2827 222.858 85.275 223.753 83.2384C224.643 81.2019 225.559 79.2134 226.507 77.273L229.103 71.9127C229.881 70.2893 230.543 68.8868 231.084 67.7148C231.624 66.5332 231.957 65.6975 232.09 65.2028C232.99 61.8598 232.815 58.8483 231.873 56.9462C230.925 55.049 229.219 54.098 226.746 54.098C224.278 54.098 221.942 54.7272 219.792 55.8463C217.424 57.0759 215.269 58.4208 213.028 60.8656C211.126 62.9711 209.265 65.1072 207.446 67.2729C206.212 68.7427 204.898 70.2749 203.5 71.8839C202.107 73.4881 200.794 75.0059 199.565 76.4565C197.796 78.5377 196.026 80.6174 194.253 82.6957H192.77C192.855 82.3787 193.098 81.7591 193.49 80.8321C193.893 79.9051 194.369 78.8148 194.931 77.5756C196.17 74.8039 197.388 72.0244 198.585 69.2374C199.178 67.8589 199.697 66.5957 200.163 65.4381C200.619 64.2854 200.942 63.3728 201.117 62.6908C201.789 60.2076 201.805 58.2191 201.17 56.7301C200.534 55.2363 198.887 54.4919 196.218 54.4919C193.548 54.4919 191.25 55.1931 189.317 56.5908C187.381 57.9947 185.823 59.7802 184.762 61.8118C183.099 64.9884 181.516 68.1993 180.016 71.442C176.417 79.2081 173.131 87.0904 170.165 95.0733C169.54 96.7585 168.945 98.4526 168.38 100.155C164.869 101.774 161.23 103.152 157.459 104.19C156.013 104.588 154.218 104.862 153.18 103.853C152.417 103.119 152.401 101.98 152.507 100.967C153.047 95.6161 155.574 90.6304 157.968 85.7265C162.003 77.4671 165.772 69.1029 169.27 60.6446C169.704 59.588 170.144 58.4208 169.762 57.3497C169.169 55.6638 166.955 55.049 165.049 54.8185C160.918 54.3237 156.151 54.6984 153.482 57.6331C152.602 58.6033 152.036 59.7753 151.479 60.928L137.773 89.2856C134.891 95.2414 131.327 101.793 124.616 103.911C123.451 104.281 122.143 104.487 121.015 104.031C119.574 103.45 118.828 101.903 118.833 100.458C118.838 99.0119 119.447 97.6334 120.046 96.2933C125.692 83.6803 129.865 74.9099 135.511 62.2921C135.776 61.7157 137.174 58.7666 137.216 57.3833C137.205 56.947 137.062 56.5217 136.805 56.1529C136.548 55.7841 136.184 55.4855 135.755 55.2892C132.153 53.7762 127.768 54.6888 124.516 56.7637C119.394 60.0298 116.592 65.3133 114.066 70.3421C111.264 75.9185 108.42 81.4853 105.867 87.1722C102.949 93.6804 99.8242 99.9821 98.23 106.875C97.4197 110.395 97.6422 114.934 100.433 117.461C102.255 119.108 104.978 119.584 107.53 119.656C117.869 119.953 127.657 114.992 135.204 108.503C135.469 111.937 136.025 115.871 139.16 117.773C141.162 118.978 143.736 119.017 146.12 118.781C150.913 118.32 155.552 116.956 160.033 115.323C161.903 114.636 163.746 113.906 165.568 113.128C165.589 113.863 165.674 114.56 165.817 115.208C166.134 116.538 166.791 117.6 167.819 118.392C168.836 119.18 170.361 119.579 172.389 119.579C174.015 119.579 175.541 119.238 176.96 118.561C178.374 117.888 179.831 116.62 181.314 114.766L210.232 79.5064H211.418C209.954 82.866 208.549 86.2462 207.202 89.6458C206.05 92.5224 205.064 95.4515 204.247 98.4211C202.383 105.338 201.895 110.597 202.78 114.19C203.664 117.782 205.465 119.579 208.182 119.579C210.899 119.579 213.584 119.228 216.248 118.527C218.938 117.815 221.559 116.907 224.087 115.813C225.867 115.049 227.614 114.185 229.357 113.282C229.352 113.877 229.161 115.016 229.134 115.554C229.044 117.499 229.362 117.907 230.353 118.743C231.338 119.584 232.365 119.66 234.484 119.66C236.073 119.66 236.645 119.531 238.038 118.609C239.351 117.744 244.113 111.289 247.778 106.692C248.381 105.938 249.043 105.155 249.774 104.343C248.429 110.045 251.321 118.368 259.986 119.665C268.407 120.924 282.103 119.17 299.777 106.673C300.09 108.416 300.572 110.064 301.239 111.601C302.521 114.545 304.539 116.932 307.287 118.757C310.036 120.583 313.696 121.5 318.261 121.5C321.429 121.5 324.548 121 327.615 120.001C330.735 118.984 333.706 117.623 336.46 115.948C339.337 114.195 341.997 112.166 344.393 109.896C349.144 105.403 353.053 100.238 355.966 94.6026C358.508 89.3576 359.726 85.4287 360.998 79.3864C361.58 76.1683 361.898 73.3248 361.856 70.7215C361.856 70.7215 361.538 64.295 360.574 63.709C359.615 63.123 332.816 55.7359 332.816 55.7359Z" fill="black"/>
</svg>
