<svg width="516" height="187" viewBox="0 0 516 187" fill="none" xmlns="http://www.w3.org/2000/svg">
<!-- <g filter="url(#filter0_d_337_3223)"> -->
<path d="M218.555 53.9157C218.555 69.3996 206.004 81.9518 190.521 81.9518C175.037 81.9518 162.486 69.3996 162.486 53.9157C162.486 38.4317 175.037 25.8795 190.521 25.8795C206.004 25.8795 218.555 38.4317 218.555 53.9157Z" fill="#FCFCFC"/>
<path d="M453.616 25.8795C453.616 40.1724 442.03 51.759 427.738 51.759C413.446 51.759 401.86 40.1724 401.86 25.8795C401.86 11.5867 413.446 0 427.738 0C442.03 0 453.616 11.5867 453.616 25.8795Z" fill="#FCFCFC"/>
<path d="M82.6945 75.4819C82.6945 86.2016 74.0049 94.8916 63.2858 94.8916C52.5666 94.8916 43.8771 86.2016 43.8771 75.4819C43.8771 64.7623 52.5666 56.0723 63.2858 56.0723C74.0049 56.0723 82.6945 64.7623 82.6945 75.4819Z" fill="#FCFCFC"/>
<path d="M326.381 95.9699C326.381 104.903 319.14 112.145 310.208 112.145C301.275 112.145 294.034 104.903 294.034 95.9699C294.034 87.0368 301.275 79.7952 310.208 79.7952C319.14 79.7952 326.381 87.0368 326.381 95.9699Z" fill="#FCFCFC"/>
<path d="M275.703 69.012C203.244 102.655 132.654 83.0301 106.416 69.012C115.905 87.1277 143.436 113.223 156.016 124.006L134.451 175.765L187.286 146.651L235.808 179L225.025 124.006C235.808 116.458 268.155 81.9518 275.703 69.012Z" fill="#FCFCFC"/>
<path d="M4 75.2944C47.6386 107.336 97.1298 103.618 116.421 97.7545C107.707 108.572 85.9485 122.315 76.1585 127.835L83.5868 165.2L52.3773 138.781L15.8469 153.909L30.331 118.679C24.1757 112.216 7.28919 84.9219 4 75.2944Z" fill="#FCFCFC"/>
<path d="M341.698 44.3967C416.995 73.215 486.606 48.3728 512 32.3494C503.748 51.3188 477.916 79.6304 466.031 91.4151L491.423 142.149L436.191 116.508L389.69 152.629L396.609 96.326C385.222 89.4708 350.216 56.9268 341.698 44.3967Z" fill="#FCFCFC"/>
<path d="M367.54 97.0482C324.292 124.998 277.513 118.665 259.529 112.004C267.19 122.769 287.07 137.05 296.053 142.845L286.883 177.901L318.012 154.586L351.839 171.018L340.083 136.748C346.293 130.961 363.872 106.003 367.54 97.0482Z" fill="#FCFCFC"/>
<!-- </g> -->
<defs>
<filter id="filter0_d_337_3223" x="0" y="0" width="516" height="187" filterUnits="userSpaceOnUse" color-interpolation-filters="sRGB">
<feFlood flood-opacity="0" result="BackgroundImageFix"/>
<feColorMatrix in="SourceAlpha" type="matrix" values="0 0 0 0 0 0 0 0 0 0 0 0 0 0 0 0 0 0 127 0" result="hardAlpha"/>
<feOffset dy="4"/>
<feGaussianBlur stdDeviation="2"/>
<feComposite in2="hardAlpha" operator="out"/>
<feColorMatrix type="matrix" values="0 0 0 0 0 0 0 0 0 0 0 0 0 0 0 0 0 0 0.3 0"/>
<feBlend mode="normal" in2="BackgroundImageFix" result="effect1_dropShadow_337_3223"/>
<feBlend mode="normal" in="SourceGraphic" in2="effect1_dropShadow_337_3223" result="shape"/>
</filter>
</defs>
</svg>
