<svg width="508" height="179" viewBox="0 0 508 179" fill="none" xmlns="http://www.w3.org/2000/svg">
<path d="M214.555 53.9157C214.555 69.3996 202.004 81.9518 186.521 81.9518C171.037 81.9518 158.486 69.3996 158.486 53.9157C158.486 38.4317 171.037 25.8795 186.521 25.8795C202.004 25.8795 214.555 38.4317 214.555 53.9157Z" fill="#0C95D4"/>
<path d="M449.616 25.8795C449.616 40.1724 438.03 51.759 423.738 51.759C409.446 51.759 397.86 40.1724 397.86 25.8795C397.86 11.5867 409.446 0 423.738 0C438.03 0 449.616 11.5867 449.616 25.8795Z" fill="#0C95D4"/>
<path d="M78.6945 75.4819C78.6945 86.2016 70.0049 94.8916 59.2858 94.8916C48.5666 94.8916 39.8771 86.2016 39.8771 75.4819C39.8771 64.7623 48.5666 56.0723 59.2858 56.0723C70.0049 56.0723 78.6945 64.7623 78.6945 75.4819Z" fill="#0C95D4"/>
<path d="M322.381 95.9699C322.381 104.903 315.14 112.145 306.208 112.145C297.275 112.145 290.034 104.903 290.034 95.9699C290.034 87.0368 297.275 79.7952 306.208 79.7952C315.14 79.7952 322.381 87.0368 322.381 95.9699Z" fill="#FF8B00"/>
<path d="M271.703 69.012C199.244 102.655 128.654 83.0301 102.416 69.012C111.905 87.1277 139.436 113.223 152.016 124.006L130.451 175.765L183.286 146.651L231.808 179L221.025 124.006C231.808 116.458 264.155 81.9518 271.703 69.012Z" fill="#0C95D4"/>
<path d="M0 75.2944C43.6386 107.336 93.1298 103.618 112.421 97.7545C103.707 108.572 81.9485 122.315 72.1585 127.835L79.5868 165.2L48.3773 138.781L11.8469 153.909L26.331 118.679C20.1757 112.216 3.28919 84.9219 0 75.2944Z" fill="#0C95D4"/>
<path d="M337.698 44.3967C412.995 73.215 482.606 48.3728 508 32.3494C499.748 51.3188 473.916 79.6304 462.031 91.4151L487.423 142.149L432.191 116.508L385.69 152.629L392.609 96.326C381.222 89.4708 346.216 56.9268 337.698 44.3967Z" fill="#0C95D4"/>
<path d="M363.54 97.0482C320.292 124.998 273.513 118.665 255.529 112.004C263.19 122.769 283.07 137.05 292.053 142.845L282.883 177.901L314.012 154.586L347.839 171.018L336.083 136.748C342.293 130.961 359.872 106.003 363.54 97.0482Z" fill="#FF8B00"/>
</svg>
