<svg width="101" height="36" viewBox="0 0 101 36" fill="none" xmlns="http://www.w3.org/2000/svg">
<path d="M70.9575 20.8817C70.9575 20.8817 70.1833 20.297 70.1833 18.2923V0.0167064H73.4989V15.419C73.4989 17.2566 73.2465 19.6288 74.6266 20.8817H70.9575ZM68.7191 20.8817C67.339 19.6288 67.5914 17.2566 67.5914 15.419V0.0167064H64.2758V18.2756C64.2758 20.2636 65.05 20.865 65.05 20.865H68.7191V20.8817ZM28.4941 14.1995C28.8475 14.1995 29.201 14.1995 29.5544 14.2162C29.9079 14.2329 30.2613 14.2664 30.5979 14.3165L30.5642 17.7077C30.194 18.0418 29.7395 18.2756 29.2178 18.4427C28.6961 18.6097 28.1743 18.6766 27.6862 18.6766C27.3833 18.6766 27.0972 18.6432 26.811 18.5763C26.5417 18.5095 26.2893 18.4093 26.0705 18.2589C25.8517 18.1086 25.6666 17.9248 25.5487 17.691C25.4141 17.4571 25.3468 17.1731 25.3468 16.8223C25.3468 16.3712 25.4309 15.987 25.5992 15.6529C25.7675 15.3188 26.0032 15.0515 26.2893 14.8343C26.5754 14.6172 26.912 14.4501 27.2823 14.3499C27.6694 14.2497 28.0733 14.1995 28.4941 14.1995ZM31.4058 20.8817H34.755C34.2333 20.3972 34.0482 19.729 33.9135 19.1777C33.7789 18.6265 33.7116 18.0251 33.7116 17.407C33.7116 16.2877 33.7284 15.1852 33.7452 14.0659C33.762 12.9466 33.7789 11.8441 33.7789 10.7248C33.7789 9.98979 33.6442 9.32158 33.3749 8.7703C33.1057 8.20232 32.7354 7.73457 32.2641 7.36705C31.7929 6.98283 31.2543 6.69884 30.6316 6.51508C30.0088 6.33132 29.3524 6.23109 28.6624 6.23109C27.7535 6.23109 27.013 6.23109 26.1042 6.41485C25.0438 6.63202 24.3033 6.93272 23.5291 7.45058V9.97309C23.5291 9.97309 24.5221 9.25476 25.8854 9.03759C26.6259 8.92065 27.3833 8.88724 28.1406 8.88724C28.5782 8.88724 28.9653 8.92065 29.2683 8.98747C29.5881 9.05429 29.8405 9.17123 30.0425 9.33829C30.2445 9.50534 30.3791 9.73921 30.4801 10.0399C30.5811 10.3406 30.6147 10.7081 30.6147 11.1592V11.6937C30.2445 11.6436 29.8574 11.6102 29.4703 11.5768C29.0832 11.5601 28.6961 11.5434 28.3258 11.5434C27.5011 11.5434 26.7269 11.6603 25.9695 11.9109C25.2121 12.1448 24.5557 12.5123 23.9835 12.98C23.4113 13.4478 22.94 14.0158 22.6034 14.7007C22.2331 15.4023 22.0648 16.1708 22.0648 17.0562C22.0648 17.7912 22.2163 18.426 22.5024 18.9606C22.8054 19.4951 23.1925 19.9462 23.6806 20.2803C24.1686 20.6311 24.724 20.8817 25.3468 21.0487C25.9695 21.2158 26.6259 21.2993 27.2991 21.2993C27.6021 21.2993 27.9218 21.2826 28.2416 21.2492C28.5614 21.2158 28.898 21.1657 29.2178 21.0821C29.5376 20.9986 29.8405 20.9151 30.1435 20.7814C30.4464 20.6645 30.7157 20.5142 30.9682 20.3471L31.4058 20.8817ZM81.7122 14.1995C82.0657 14.1995 82.4191 14.1995 82.7725 14.2162C83.126 14.2329 83.4794 14.2664 83.816 14.3165L83.7824 17.7077C83.4121 18.0418 82.9577 18.2756 82.4359 18.4427C81.9142 18.6097 81.3924 18.6766 80.9044 18.6766C80.6014 18.6766 80.3153 18.6432 80.0292 18.5763C79.7599 18.5095 79.5074 18.4093 79.2886 18.2589C79.0698 18.1086 78.9015 17.9248 78.7669 17.691C78.6322 17.4571 78.5649 17.1731 78.5649 16.8223C78.5649 16.3712 78.6491 15.987 78.8174 15.6529C78.9857 15.3188 79.2213 15.0515 79.5074 14.8343C79.7935 14.6172 80.1301 14.4501 80.5173 14.3499C80.9044 14.2497 81.2915 14.1995 81.7122 14.1995ZM84.6239 20.8817H87.6534C87.4346 20.297 87.2663 19.729 87.1317 19.1777C86.997 18.6265 86.9297 18.0251 86.9297 17.407C86.9297 16.2877 86.9465 15.1852 86.9633 14.0659C86.9802 12.9466 86.997 11.8441 86.997 10.7248C86.997 9.98979 86.8624 9.32158 86.5931 8.7703C86.3238 8.20232 85.9535 7.73457 85.4823 7.36705C85.011 6.98283 84.4724 6.69884 83.8497 6.51508C83.227 6.33132 82.5706 6.23109 81.8805 6.23109C80.9717 6.23109 80.2311 6.23109 79.3223 6.41485C78.262 6.63202 77.5214 6.93272 76.7472 7.45058V9.97309C76.7472 9.97309 77.7402 9.25476 79.1035 9.03759C79.844 8.92065 80.6014 8.88724 81.3588 8.88724C81.7964 8.88724 82.1666 8.92065 82.4864 8.98747C82.8062 9.05429 83.0587 9.17123 83.2606 9.33829C83.4626 9.50534 83.6141 9.73921 83.6982 10.0399C83.7824 10.3406 83.8329 10.7081 83.8329 11.1592V11.6937C83.4626 11.6436 83.0923 11.6102 82.6884 11.5768C82.3013 11.5601 81.9142 11.5434 81.5439 11.5434C80.7192 11.5434 79.945 11.6603 79.1876 11.9109C78.4471 12.1448 77.7739 12.5123 77.2016 12.98C76.6294 13.4478 76.1581 14.0158 75.8215 14.7007C75.4681 15.3856 75.2998 16.1541 75.2998 17.0394C75.2998 17.7745 75.4513 18.4093 75.7374 18.9439C76.0403 19.4784 76.4274 19.9295 76.9155 20.2636C77.4036 20.6144 77.959 20.865 78.5817 21.032C79.2045 21.1991 79.8609 21.2826 80.5341 21.2826C80.837 21.2826 81.1568 21.2659 81.4766 21.2325C81.7964 21.1991 82.133 21.149 82.4528 21.0654C82.7725 20.9819 83.0755 20.8984 83.3784 20.7647C83.6814 20.6478 83.9507 20.4974 84.2031 20.3304L84.6239 20.8817ZM16.2415 0C13.4308 3.67517 10.9735 9.00418 10.0983 13.2807C9.44193 9.23805 7.0015 3.67517 4.17397 0H0V20.865H3.46709V4.82784C4.99867 7.26682 6.93418 11.7439 8.26379 17.6742H11.916C13.1615 12.3285 15.3663 7.23341 16.881 4.82784V20.865H20.3986V0H16.2415ZM42.0427 8.83712C40.2418 8.83712 39.0468 9.97309 39.0468 11.6603C39.0468 12.98 39.8379 14.4 42.0427 14.4C42.9179 14.4 43.6079 14.1828 44.1128 13.7485C44.8702 13.0636 44.9375 12.078 44.9207 11.677C44.9039 11.0088 44.6514 8.83712 42.0427 8.83712ZM48.169 20.3805C49.162 21.1991 49.6837 22.3183 49.6837 23.7049C49.6837 26.2608 47.5126 29.0172 42.7495 29.0172C40.6794 29.0172 39.1646 28.5995 37.9697 27.6975C36.8589 26.8622 36.3035 25.6761 36.2361 24.3731C36.1856 23.187 36.4718 22.335 36.6906 21.8506L40.124 22.7527C39.6864 23.2037 39.5013 23.5712 39.5013 24.1559C39.5013 24.9411 40.0398 26.3944 42.8842 26.3944C45.4593 26.3944 46.3849 25.0413 46.3849 24.0056C46.3849 22.5188 44.1801 22.0176 42.3456 21.4998L35.7985 19.7958C36.5896 18.3592 37.9192 16.6051 38.3568 16.1374C38.3399 16.1374 38.3231 16.1207 38.3231 16.1207C36.741 15.3188 35.7985 13.7318 35.7985 11.8107C35.7985 10.8752 36.0173 9.95638 36.4213 9.17123C37.936 6.28121 41.2348 6.18098 42.4634 6.28121C45.1563 6.48167 47.1087 6.71555 49.2461 6.03063V9.05429L47.4789 9.35499C48.0007 10.1903 48.1353 11.109 48.1353 11.8274C48.1353 14.8678 45.7285 16.9893 42.2615 16.9893C42.0595 16.9893 41.6724 16.9893 41.1506 16.9225H41.117C40.915 17.123 40.6121 17.4404 40.2586 17.8747C40.8814 18.0251 44.0455 18.7601 45.4424 19.1944H45.4761C45.9137 19.2947 47.3611 19.729 48.169 20.3805ZM101 20.8817V12.2116C101 8.23573 99.5358 6.2645 96.2706 6.2478C94.3183 6.23109 92.1976 7.06636 92.1976 7.06636L91.8105 6.36473H88.5454C88.8315 6.73225 89.3701 7.8181 89.3701 9.50534V20.8817H92.5679V9.7058C92.5679 9.7058 93.4936 9.13782 94.7559 8.93736C96.7755 8.61995 97.7685 9.18794 97.7685 11.8775V20.8817H101ZM56.2645 8.90394C54.4468 8.90394 53.3864 10.1568 53.3864 12.7295H59.0415V12.5791C59.0247 10.0733 58.0485 8.90394 56.2645 8.90394ZM53.5716 15.2019C53.9418 18.2422 56.0625 18.4928 58.0148 18.4928C59.883 18.4928 61.7007 17.5907 61.7007 17.5907V20.2302C60.2028 20.8817 58.8059 21.2993 57.2575 21.2993C52.5786 21.2993 49.9698 18.4928 49.9698 13.5313C49.9698 8.97077 52.3598 6.2478 56.315 6.2478C60.186 6.2478 62.3403 8.60325 62.3403 13.4979C62.3403 13.8821 62.2898 14.7341 62.2056 15.2019H53.5716Z" fill="black"/>
<path d="M52.73 35.9833C52.04 35.9833 51.6866 35.6492 51.6866 34.9977V25.3086C51.6866 24.6571 52.04 24.323 52.73 24.323H53.6052V29.2009H57.3416V25.3086C57.3416 24.6571 57.6951 24.323 58.3683 24.323H59.2603V36H58.3683C57.6782 36 57.3416 35.6659 57.3416 35.0144V31.1053H53.6052V36H52.73V35.9833ZM63.6026 31.0719H67.3558C68.0458 31.0719 68.3656 30.7378 68.3656 30.103V29.1842H63.6026V26.9624C63.6026 26.7118 63.6699 26.5114 63.8382 26.3777C63.9728 26.2775 64.1243 26.2107 64.3095 26.2107H67.3558C68.0458 26.2107 68.3656 25.8766 68.3656 25.2084V24.2896H64.2758C63.6026 24.2896 63.0303 24.49 62.5591 24.9077C61.9868 25.3921 61.6839 26.0603 61.6839 26.9457V33.2937C61.6839 34.1791 61.9868 34.864 62.5591 35.3485C63.064 35.7494 63.6362 35.9499 64.2758 35.9499H68.3656V35.0311C68.3656 34.3963 68.029 34.0622 67.3558 34.0622H64.3095C64.1243 34.0622 63.9728 34.0121 63.8382 33.8784C63.6699 33.7615 63.6026 33.561 63.6026 33.2937V31.0719ZM75.6364 25.1749C75.5522 24.8575 75.3503 24.6404 75.0305 24.4733C74.7444 24.3397 74.4246 24.2896 74.088 24.2896C73.2128 24.2896 72.7247 24.5903 72.5564 25.1749L69.6952 35.0311C69.6447 35.265 69.6447 35.4821 69.7289 35.6325C69.8635 35.8664 70.0655 35.9833 70.3348 35.9833H71.4119L72.2703 32.993H75.9225L76.5621 35.265C76.6126 35.4821 76.7472 35.6492 76.9324 35.7828C77.1343 35.9165 77.3363 35.9833 77.5719 35.9833H78.75L75.6364 25.1749ZM72.8089 31.1053L74.088 26.6283L75.3671 31.1053H72.8089ZM82.032 24.3063H81.1568C80.4668 24.3063 80.1133 24.6404 80.1133 25.2919V33.7281C80.1133 34.4798 80.3153 35.0311 80.7024 35.4153C81.0895 35.7995 81.6617 35.9833 82.4359 35.9833H85.9367V35.0645C85.9367 34.4297 85.6001 34.0956 84.91 34.0956H82.5369C82.1835 34.0956 82.0152 33.9285 82.0152 33.5944V24.3063H82.032ZM87.5693 26.2107V34.981C87.5693 35.6325 87.9059 35.9666 88.5791 35.9666H89.4711V26.2107H90.8175C91.5076 26.2107 91.8442 25.8766 91.8442 25.2084V24.2896H86.1891C85.4991 24.2896 85.1625 24.6237 85.1625 25.2752V26.2107H87.5693ZM95.3281 35.9833V31.0886H99.0645V34.9977C99.0645 35.6492 99.4179 35.9833 100.091 35.9833H100.983V24.3063H100.091C99.4011 24.3063 99.0645 24.6404 99.0645 25.2919V29.1842H95.3281V24.3063H94.4529C93.7797 24.3063 93.4263 24.6404 93.4263 25.2919V34.981C93.4263 35.6325 93.7797 35.9666 94.4529 35.9666H95.3281V35.9833Z" fill="#007EB8"/>
</svg>
