<?xml version="1.0" encoding="utf-8"?>
<!-- Generator: Adobe Illustrator 24.1.2, SVG Export Plug-In . SVG Version: 6.00 Build 0)  -->
<svg version="1.1" id="Layer_1" xmlns="http://www.w3.org/2000/svg" xmlns:xlink="http://www.w3.org/1999/xlink" x="0px" y="0px"
	 width="1026.8px" height="382.6px" viewBox="0 0 1026.8 382.6" style="enable-background:new 0 0 1026.8 382.6;"
	 xml:space="preserve">
<style type="text/css">
	.st0{display:none;fill:#FFFFFF;}
	.st1{fill:#3B3B3B;}
	.st2{fill:#AEBC16;}
	.st3{fill:#D9D9D9;}
	.st4{fill:#303244;}
	.st5{fill:#737373;}
	.st6{fill:#1B1C2B;}
	.st7{fill:#979797;}
	.st8{fill:#FFFFFF;}
	.st9{fill:#A5A5A5;}
	.st10{fill:#716E6E;}
	.st11{fill:#181822;}
	.st12{fill:#474509;}
	.st13{fill:#BDD247;}
	.st14{fill:#456D06;}
	.st15{fill:#52574B;}
	.st16{fill:#F1F1F1;}
	.st17{fill:#9D9898;}
	.st18{fill:#171C2A;}
	.st19{fill:#7C7B7B;}
	.st20{fill:#B4B4B4;}
	.st21{fill:#949494;}
	.st22{fill:#929292;}
	.st23{fill:#B6B6B6;}
	.st24{fill:#1D1E2A;}
	.st25{fill:#B3B0B0;}
	.st26{fill:#232532;}
	.st27{fill:#7E7979;}
	.st28{fill:#343434;}
	.st29{fill:#0A0D15;}
	.st30{fill:#C5C5C5;}
	.st31{fill:#242635;}
</style>
<desc>Created with Fabric.js 5.2.4</desc>
<g id="_x34_8e7b395-c3d3-41f3-9853-d1f8deeea548" transform="matrix(1 0 0 1 540 540)">
	<rect x="-574.8" y="-863.3" vector-effect="non-scaling-stroke" class="st0" width="1080" height="1080"/>
</g>
<g id="_x32_66d96be-03b3-46bc-9200-6fa9d950d301" transform="matrix(1 0 0 1 540 540)">
</g>
<g transform="matrix(1 0 0 1 540 540)">
	<g vector-effect="non-scaling-stroke">
		<g transform="matrix(1 0 0 1 0 0)">
			<rect x="-588.7" y="-855.8" vector-effect="non-scaling-stroke" class="st0" width="1080" height="1080"/>
		</g>
		<g transform="matrix(1.09 0 0 1.09 22.13 -32.89)">
			<path vector-effect="non-scaling-stroke" class="st1" d="M-513-136.6l231.7-322.7c2.7-3.7,7-5.9,11.6-5.9l478.7,4.9
				c4.3,0,8.4,2.1,11.1,5.5l203.3,264.5c6.9,9,0.9,22.1-10.4,22.7l-913.6,53.4C-512.6-113.6-520-127-513-136.6z"/>
		</g>
		<g transform="matrix(1.09 0 0 1.09 12.8 -125.55)">
			<path vector-effect="non-scaling-stroke" class="st2" d="M-47.1-329.5l-72.3,36.4l55.8,43l93.6-39L-47.1-329.5z"/>
		</g>
		<g transform="matrix(1.09 0 0 1.09 -31.35 -117.09)">
			<path vector-effect="non-scaling-stroke" class="st3" d="M-71-302.3v-1.8l52.5,25v3.7L-71-302.3z"/>
		</g>
		<g transform="matrix(1.09 0 0 1.09 -31.31 -119.25)">
			<path vector-effect="non-scaling-stroke" class="st4" d="M-71-302.1v-2.4l52.6,26.2v3.3L-71-302.1z"/>
		</g>
		<g transform="matrix(1.09 0 0 1.09 -31.31 -122.41)">
			<path vector-effect="non-scaling-stroke" class="st3" d="M-71-301.4v-3.2l52.6,25.4v4.3L-71-301.4z"/>
		</g>
		<g transform="matrix(1.09 0 0 1.09 -31.31 -127.97)">
			<path vector-effect="non-scaling-stroke" class="st4" d="M-71.1-299.4v-5.9l52.7,26.9v4.4L-71.1-299.4z"/>
		</g>
		<g transform="matrix(1.09 0 0 1.09 60.32 -127.15)">
			<path vector-effect="non-scaling-stroke" class="st5" d="M-61-278.2v-6.6l32.5-16.4v8.2L-61-278.2z"/>
		</g>
		<g transform="matrix(1.09 0 0 1.09 14.56 -166.27)">
			<path vector-effect="non-scaling-stroke" class="st6" d="M-44.3-286.9v-5.6l-0.9,5.6H-44.3z"/>
		</g>
		<g transform="matrix(1.09 0 0 1.09 -67.13 -83.51)">
			<path vector-effect="non-scaling-stroke" class="st2" d="M-121.4-290.8l55.4,42.2l19.8-9.5l2-7.8l-6.1-1.6l2.8-11.5l13.6,2.6
				l-3.1,6.5l3.7,1.8l-4.4,1.8l-2.4,8.7l4.1,3.8l8.9-4.6l3.1-13.5l12.7-6.7l5.1,1.9L32-296.1l-64.1-34.8L-121.4-290.8z"/>
		</g>
		<g transform="matrix(1.09 0 0 1.09 43.58 -175.2)">
			<path vector-effect="non-scaling-stroke" class="st3" d="M-251.2-294.2l-1.5,3.1l415.9,5.8l-1.9-2.6L-251.2-294.2z"/>
		</g>
		<g transform="matrix(1.09 0 0 1.09 9.03 -148.93)">
			<path vector-effect="non-scaling-stroke" class="st7" d="M-13.8-264.9h-41.1l-53.3-27.8l54.7-21.8l14.3,6.1l-0.9,5.6l14.2,0.3
				L18.8-281L-13.8-264.9z"/>
		</g>
		<g transform="matrix(1.09 0 0 1.09 -178.17 -43.11)">
			<path vector-effect="non-scaling-stroke" class="st2" d="M-43.4-247.7c-6.2,2.9-20.5,6.2-26.8,7.5c-7.7-0.2-3.4-3.2-0.3-4.7
				l9.3-4.5l-26.4-25.4l20.5-13.6l-5-4.9l-20.4,14.5l-15.1-15.6c-0.6,0.1-3.2,1-9.4,3.8c-6.2,2.8-4.8-0.7-3.4-2.9
				c3-9.7,11.9-20.6,15.9-24.9l48.1-19.8l4.3-0.3l3.3,1.9l6.1-0.4l1.6-2.2l3.1-0.2l70.1,55.6C9.6-272.9-37.2-250.7-43.4-247.7z"/>
		</g>
		<g transform="matrix(1.09 0 0 1.09 184.15 -153.51)">
			<path vector-effect="non-scaling-stroke" class="st7" d="M56.3-264.5l-96.4-0.5l-105.5-38.6l134.5,4.4l-7.1-15.8l45.7,2.4
				L56.3-264.5z"/>
		</g>
		<g transform="matrix(1.09 0 0 1.09 145.56 -153.87)">
			<path vector-effect="non-scaling-stroke" class="st8" d="M-44.2-292.1l-7.7,2.3l7.4,2.3l7-2.2L-44.2-292.1z"/>
		</g>
		<g transform="matrix(1.09 0 0 1.09 149.79 -148.03)">
			<path vector-effect="non-scaling-stroke" class="st9" d="M-41.5-294.9l-6.9,2.2l0.1,8.1l7.3-1.9L-41.5-294.9z"/>
		</g>
		<g transform="matrix(1.09 0 0 1.09 18.44 -36.18)">
			<path vector-effect="non-scaling-stroke" class="st2" d="M-341.1-251.4c-16.5-4.9-12.2-17.2-8-22.7
				c28.3-41.1,92.5-134.3,98.1-141.5c5.7-7.2,1.6-6.8-2.6-7.1c-4.2-0.3-11.3-0.8-20.9-1.2c-14.4-0.6-12.2-0.5-22.2,15.6
				c-38.2,61.6-131.1,179.1-149.7,207.4c-32.5,49.5-3.8,46.7,35.3,44.7c245.8-12.8,743-38.8,765.9-40.2c22.9-1.4,16.2-17.1,10-24.8
				l-126-193.6l-40.9-0.8c20.3,34,51.6,83.7,30.5,90.8c-16.9,5.7-61.4,25-81.6,34c-34.2,19.1-118.4,60.2-181.9,72.1
				c-63.6,11.9-141.6,5.4-172.7,0.6C-245.3-227.2-324.6-246.5-341.1-251.4z"/>
		</g>
		<g transform="matrix(1.09 0 0 1.09 -71.79 -76.86)">
			<path vector-effect="non-scaling-stroke" class="st10" d="M-46.4-287.3l3.2-9.3l0.2,3.1l-3.1,10.6L-46.4-287.3z"/>
		</g>
		<g transform="matrix(1.09 0 0 1.09 -71.57 -73.4)">
			<path vector-effect="non-scaling-stroke" class="st11" d="M-46.4-287.3l3.2-9.3l0.2,3.1l-3.1,10.6L-46.4-287.3z"/>
		</g>
		<g transform="matrix(1.09 0 0 1.09 -249.09 -71)">
			<path vector-effect="non-scaling-stroke" class="st12" d="M-45.4-293.5l0.9-0.1l0.5,7.5l-1,0.1L-45.4-293.5z"/>
		</g>
		<g transform="matrix(1.09 0 0 1.09 -249.6 -78.43)">
			<path vector-effect="non-scaling-stroke" class="st13" d="M-40.1-290c0.2,2.5-1.8,4.7-4.4,4.9c-2.6,0.2-4.8-1.8-4.9-4.3
				c-0.2-2.5,1.8-4.7,4.4-4.9C-42.4-294.5-40.2-292.6-40.1-290z"/>
		</g>
		<g transform="matrix(1.09 0 0 1.09 -251.84 -66.66)">
			<path vector-effect="non-scaling-stroke" class="st14" d="M-41.4-290l-1-0.3l-5.6,0.7l0.6,0.3L-41.4-290z"/>
		</g>
		<g transform="matrix(1.09 0 0 1.09 -259.03 -66.06)">
			<path vector-effect="non-scaling-stroke" class="st15" d="M-40-290.2c0.1,1-2,1.9-4.6,2.2c-2.6,0.2-4.8-0.4-4.9-1.3
				c-0.1-1,2-1.9,4.6-2.2C-42.2-291.7-40-291.1-40-290.2z"/>
		</g>
		<g transform="matrix(1.09 0 0 1.09 -71.36 -69.93)">
			<path vector-effect="non-scaling-stroke" class="st10" d="M-46.4-287.2l3.1-9.5l0.2,3.6l-3.1,10.2L-46.4-287.2z"/>
		</g>
		<g transform="matrix(1.09 0 0 1.09 -70.96 -63.38)">
			<path vector-effect="non-scaling-stroke" class="st10" d="M-46.4-287.3l3.2-9.3l0.2,3.1l-3.1,10.6L-46.4-287.3z"/>
		</g>
		<g transform="matrix(1.09 0 0 1.09 -71.14 -66.4)">
			<path vector-effect="non-scaling-stroke" class="st11" d="M-46.4-287.3l3.2-9.3l0.2,3.1l-3.1,10.6L-46.4-287.3z"/>
		</g>
		<g transform="matrix(1.09 0 0 1.09 141.81 -148.02)">
			<path vector-effect="non-scaling-stroke" class="st16" d="M-41.1-292.7l0.2,8.3l-7-2.6l-0.5-8L-41.1-292.7z"/>
		</g>
		<g transform="matrix(1.09 0 0 1.09 91.78 -49.68)">
			<path vector-effect="non-scaling-stroke" class="st2" d="M-49.2-359.4l-116.1,57.2l-0.4,6.3l13.6,0.4l-0.5,5.1l-14-0.1l-1,2.5
				l68.8,53.9c-1.1,0.7-3.6,2.3-5.3,3.2c-1.7,1,0.1,2.6,1.2,3.3c0.6,0.4,3.1,2.1,8.9,5.7c5.7,3.6,10.5,1,12.2-0.8
				c51-29.3,154.1-88.6,157.9-91.1c3.8-2.6,1.6-4.3,0.1-4.9l-84.9-40.7L-49.2-359.4z"/>
		</g>
		<g transform="matrix(1.09 0 0 1.09 -270.64 14.29)">
			<path vector-effect="non-scaling-stroke" class="st12" d="M-45.6-294.2l1.1-0.1l0.5,8.9l-1.1,0.1L-45.6-294.2z"/>
		</g>
		<g transform="matrix(1.09 0 0 1.09 -271.22 5.48)">
			<path vector-effect="non-scaling-stroke" class="st13" d="M-39.2-290.1c0.2,3-2.1,5.6-5.2,5.8c-3.1,0.2-5.7-2.1-5.9-5.1
				s2.1-5.6,5.2-5.8S-39.4-293.1-39.2-290.1z"/>
		</g>
		<g transform="matrix(1.09 0 0 1.09 -273.89 19.45)">
			<path vector-effect="non-scaling-stroke" class="st14" d="M-40.8-290l-1.2-0.3l-6.6,0.8l0.8,0.4L-40.8-290z"/>
		</g>
		<g transform="matrix(1.09 0 0 1.09 -282.6 20.16)">
			<path vector-effect="non-scaling-stroke" class="st14" d="M-39.1-290.2c0.1,1.1-2.3,2.3-5.5,2.6c-3.1,0.3-5.7-0.4-5.8-1.6
				c-0.1-1.1,2.3-2.3,5.5-2.6C-41.8-292.1-39.2-291.4-39.1-290.2z"/>
		</g>
		<g transform="matrix(1.09 0 0 1.09 -259.83 17.55)">
			<path vector-effect="non-scaling-stroke" class="st12" d="M-46.3-298l2.1-0.1l1,16.6l-2.1,0.1L-46.3-298z"/>
		</g>
		<g transform="matrix(1.09 0 0 1.09 -260.93 1.16)">
			<path vector-effect="non-scaling-stroke" class="st13" d="M-34.4-290.4c0.3,5.6-4,10.4-9.7,10.8c-5.7,0.3-10.6-3.9-10.9-9.5
				c-0.3-5.6,4-10.4,9.7-10.8C-39.7-300.2-34.8-296-34.4-290.4z"/>
		</g>
		<g transform="matrix(1.09 0 0 1.09 -265.9 27.16)">
			<path vector-effect="non-scaling-stroke" class="st14" d="M-37.4-290.3l-2.2-0.6l-12.3,1.5l1.4,0.7L-37.4-290.3z"/>
		</g>
		<g transform="matrix(1.09 0 0 1.09 -282.12 28.49)">
			<path vector-effect="non-scaling-stroke" class="st14" d="M-34.2-290.7c0.2,2.1-4.4,4.3-10.2,4.8s-10.7-0.8-10.9-2.9
				s4.4-4.3,10.2-4.8S-34.4-292.8-34.2-290.7z"/>
		</g>
		<g transform="matrix(1.09 0 0 1.09 -61.63 -81.43)">
			<path vector-effect="non-scaling-stroke" class="st17" d="M-36.8-287.2l-0.2-3.7l-15.5-1.4l0.2,3.1L-36.8-287.2z"/>
		</g>
		<g transform="matrix(1.09 0 0 1.09 -61.43 -78.12)">
			<path vector-effect="non-scaling-stroke" class="st18" d="M-36.8-287.2l-0.2-3.7l-15.5-1.4l0.2,3.1L-36.8-287.2z"/>
		</g>
		<g transform="matrix(1.09 0 0 1.09 -61.2 -74.49)">
			<path vector-effect="non-scaling-stroke" class="st17" d="M-36.8-287l-0.2-3.7l-15.5-1.8l0.2,3.5L-36.8-287z"/>
		</g>
		<g transform="matrix(1.09 0 0 1.09 -60.79 -67.8)">
			<path vector-effect="non-scaling-stroke" class="st17" d="M-36.8-287.2l-0.2-3.7l-15.5-1.4l0.2,3.1L-36.8-287.2z"/>
		</g>
		<g transform="matrix(1.09 0 0 1.09 -60.99 -70.95)">
			<path vector-effect="non-scaling-stroke" class="st18" d="M-36.8-287.2l-0.2-3.7l-15.5-1.4l0.2,3.1L-36.8-287.2z"/>
		</g>
		<g transform="matrix(1.09 0 0 1.09 -218.07 -100.32)">
			<path vector-effect="non-scaling-stroke" class="st2" d="M-57.5-284.1l8.5-14.7c1.3-2.2,3.8-1.1,4.9-0.3c3.1,2.3,9.9,7.3,12.1,9
				c2.2,1.6,0.2,2.3-1.1,2.4c-4.5,1.7-15,5.6-20.8,7.8C-59.7-277.8-58.7-281.8-57.5-284.1z"/>
		</g>
		<g transform="matrix(1.09 0 0 1.09 -220.43 -110.5)">
			<path vector-effect="non-scaling-stroke" class="st12" d="M-45.4-293.5l0.9-0.1l0.5,7.5l-1,0.1L-45.4-293.5z"/>
		</g>
		<g transform="matrix(1.09 0 0 1.09 -220.93 -117.92)">
			<path vector-effect="non-scaling-stroke" class="st13" d="M-40.1-290c0.2,2.5-1.8,4.7-4.4,4.9s-4.8-1.8-4.9-4.3
				c-0.2-2.5,1.8-4.7,4.4-4.9C-42.4-294.5-40.2-292.6-40.1-290z"/>
		</g>
		<g transform="matrix(1.09 0 0 1.09 -223.18 -106.15)">
			<path vector-effect="non-scaling-stroke" class="st14" d="M-41.4-290l-1-0.3l-5.6,0.7l0.6,0.3L-41.4-290z"/>
		</g>
		<g transform="matrix(1.09 0 0 1.09 -230.37 -105.55)">
			<path vector-effect="non-scaling-stroke" class="st15" d="M-40-290.2c0.1,1-2,1.9-4.6,2.2c-2.6,0.2-4.8-0.4-4.9-1.3
				c-0.1-1,2-1.9,4.6-2.2C-42.2-291.7-40-291.1-40-290.2z"/>
		</g>
		<g transform="matrix(1.09 0 0 1.09 -72.62 -156.02)">
			<path vector-effect="non-scaling-stroke" class="st13" d="M-26.7-294l-35.3-1.2c-6.2-0.2-4.4,2-2.7,3.1c2.4,1.3,8.1,4.3,12.1,6.3
				s7.2,1.5,8.3,1c4.7-1.8,15.2-5.7,19.3-7.2C-20.9-293.5-24.4-293.9-26.7-294z"/>
		</g>
		<g transform="matrix(1.09 0 0 1.09 216.92 -172.35)">
			<path vector-effect="non-scaling-stroke" class="st19" d="M-48-292.2l-0.3-5.5l7.2,15.9l-2.7-0.2L-48-292.2z"/>
		</g>
		<g transform="matrix(1.09 0 0 1.09 137.3 -173.92)">
			<path vector-effect="non-scaling-stroke" class="st20" d="M-118.2-289.5l16.2,4.9l131.3,4.2L25-290.8l-143.8-8.2L-118.2-289.5z"
				/>
		</g>
		<g transform="matrix(1.09 0 0 1.09 123.16 -141.83)">
			<path vector-effect="non-scaling-stroke" class="st21" d="M-104.2-303l-1-16.3l120,43.3l1,15.8L-104.2-303z"/>
		</g>
		<g transform="matrix(1.09 0 0 1.09 241.81 -117.17)">
			<path vector-effect="non-scaling-stroke" class="st19" d="M-93.3-283.2l-1-15.5l98,0.8l1.1,17.2L-93.3-283.2z"/>
		</g>
		<g transform="matrix(1.09 0 0 1.09 241.87 -88.19)">
			<path vector-effect="non-scaling-stroke" class="st2" d="M-45.8-287.4l-8.5-3.4c-1.8-1.1,0.6-1.5,2.1-1.5
				c3.4,0.1,11.3,0.4,15.1,0.5c3.8,0.1,2.8,1,1.9,1.4c-1.2,0.5-4.2,1.8-6.4,2.8C-43.8-286.7-45.3-287.1-45.8-287.4z"/>
		</g>
		<g transform="matrix(1.09 0 0 1.09 287.86 -103.96)">
			<path vector-effect="non-scaling-stroke" class="st2" d="M-49.2-287.4l-2.7-6.1l14.5,0.5c0.1,1.4-3,5-7,6.5
				C-47.7-285.3-49-286.6-49.2-287.4z"/>
		</g>
		<g transform="matrix(1.09 0 0 1.09 197.18 -106.13)">
			<path vector-effect="non-scaling-stroke" class="st2" d="M-39.6-286.4l-12.5-6.8h13.4c0.4,1.2,1.2,4.1,1.5,5.7
				C-37-286-38.7-286.1-39.6-286.4z"/>
		</g>
		<g transform="matrix(1.09 0 0 1.09 -68.31 25.54)">
			<path vector-effect="non-scaling-stroke" class="st2" d="M-37.5-288.5l-5.2-5c-1.4,0.7-5,2.6-8.4,4.6c-3.4,2-0.4,2.8,1.5,3
				c2-0.2,6.7-0.5,10.2-0.6C-35.9-286.7-36.7-287.9-37.5-288.5z"/>
		</g>
		<g transform="matrix(1.09 0 0 1.09 -138.52 -128.98)">
			<path vector-effect="non-scaling-stroke" class="st2" d="M-110.4-287.5l9.2-3.3l35.9,24.2c-1.2,0.6-4.1,2.1-6.6,3
				c-2.5,0.8-1.6,2.1-0.8,2.6c3.7,2.4,11.4,7.4,13.2,8.7c1.7,1.3,3.2,0.7,3.8,0.3c25.3-10.9,76.5-32.9,78.6-34s1-2.3,0.2-2.7
				L-6.8-304l-8.6,3.7l-3.3-1.8l8.9-3.5L-47-328l-36.5,12.5c0.3-1.4,1.1-4.5,1.4-5.4s-0.6-1.3-1.1-1.4l-8.3-0.3
				c-2.4-0.2-3,1.1-3,1.8c-0.7,1.3-2.2,4.3-3,5.9s0.9,1.7,1.8,1.6l11.2,0.1l-6.6,17.6c-4-0.2-12.5-0.5-14.9-0.6
				c-2.3-0.1-3.1,0.8-3.2,1.2c-0.6,1-2.1,3.6-3.7,6.3C-114.5-286.2-111.9-286.8-110.4-287.5z"/>
		</g>
		<g transform="matrix(1.09 0 0 1.09 -84.16 -163.25)">
			<path vector-effect="non-scaling-stroke" class="st12" d="M-45.4-293.5l0.9-0.1l0.5,7.5l-1,0.1L-45.4-293.5z"/>
		</g>
		<g transform="matrix(1.09 0 0 1.09 -84.67 -170.67)">
			<path vector-effect="non-scaling-stroke" class="st13" d="M-40.1-290c0.2,2.5-1.8,4.7-4.4,4.9c-2.6,0.2-4.8-1.8-4.9-4.3
				c-0.2-2.5,1.8-4.7,4.4-4.9C-42.4-294.5-40.2-292.6-40.1-290z"/>
		</g>
		<g transform="matrix(1.09 0 0 1.09 -86.91 -158.91)">
			<path vector-effect="non-scaling-stroke" class="st14" d="M-41.4-290l-1-0.3l-5.6,0.7l0.6,0.3L-41.4-290z"/>
		</g>
		<g transform="matrix(1.09 0 0 1.09 -94.1 -158.31)">
			<path vector-effect="non-scaling-stroke" class="st15" d="M-40-290.2c0.1,1-2,1.9-4.6,2.2c-2.6,0.2-4.8-0.4-4.9-1.3
				c-0.1-1,2-1.9,4.6-2.2C-42.2-291.7-40-291.1-40-290.2z"/>
		</g>
		<g transform="matrix(1.09 0 0 1.09 -57.21 -162.59)">
			<path vector-effect="non-scaling-stroke" class="st12" d="M-45.4-293.5l0.9-0.1l0.5,7.5l-1,0.1L-45.4-293.5z"/>
		</g>
		<g transform="matrix(1.09 0 0 1.09 -57.71 -170.01)">
			<path vector-effect="non-scaling-stroke" class="st13" d="M-40.1-290c0.2,2.5-1.8,4.7-4.4,4.9c-2.6,0.2-4.8-1.8-4.9-4.3
				c-0.2-2.5,1.8-4.7,4.4-4.9C-42.4-294.5-40.2-292.6-40.1-290z"/>
		</g>
		<g transform="matrix(1.09 0 0 1.09 -59.96 -158.24)">
			<path vector-effect="non-scaling-stroke" class="st14" d="M-41.4-290l-1-0.3l-5.6,0.7l0.6,0.3L-41.4-290z"/>
		</g>
		<g transform="matrix(1.09 0 0 1.09 -67.15 -157.64)">
			<path vector-effect="non-scaling-stroke" class="st15" d="M-40-290.2c0.1,1-2,1.9-4.6,2.2c-2.6,0.2-4.8-0.4-4.9-1.3
				c-0.1-1,2-1.9,4.6-2.2C-42.2-291.7-40-291.1-40-290.2z"/>
		</g>
		<g transform="matrix(1.09 0 0 1.09 -166.26 -124.46)">
			<path vector-effect="non-scaling-stroke" class="st3" d="M-67.6-303.2l-0.2-3.9l45.9,30l0.3,4.6L-67.6-303.2z"/>
		</g>
		<g transform="matrix(1.09 0 0 1.09 -166.13 -120.56)">
			<path vector-effect="non-scaling-stroke" class="st4" d="M-67.4-303l-0.2-3.7l45.7,29.9l0.3,4.2L-67.4-303z"/>
		</g>
		<g transform="matrix(1.09 0 0 1.09 -165.92 -117.06)">
			<path vector-effect="non-scaling-stroke" class="st3" d="M-67.4-302.8l-0.2-3.5L-22-276l0.2,2.8L-67.4-302.8z"/>
		</g>
		<g transform="matrix(1.09 0 0 1.09 -165.65 -112.78)">
			<path vector-effect="non-scaling-stroke" class="st4" d="M-67.5-303.9l-0.2-3l45.6,29.6l0.3,4.8L-67.5-303.9z"/>
		</g>
		<g transform="matrix(1.09 0 0 1.09 -165.48 -109.89)">
			<path vector-effect="non-scaling-stroke" class="st3" d="M-67.6-305l-0.1-1.8l45.7,31.5l0.2,2.7L-67.6-305z"/>
		</g>
		<g transform="matrix(1.09 0 0 1.09 -133.69 -141.32)">
			<path vector-effect="non-scaling-stroke" class="st22" d="M-91-303.4l-6.6,12.1l45.7,29.9L8-285.1l-13-7.3l-13.6-0.6l2.5-5.5
				L-50.4-318L-91-303.4z"/>
		</g>
		<g transform="matrix(1.09 0 0 1.09 -103.68 -147.74)">
			<path vector-effect="non-scaling-stroke" class="st6" d="M-46.2-287.1l2.6-5.5l0.4,5.7L-46.2-287.1z"/>
		</g>
		<g transform="matrix(1.09 0 0 1.09 -137.32 -145.86)">
			<path vector-effect="non-scaling-stroke" class="st8" d="M-55.5-287l2.7,1.6l18.9-6.9l-2.8-1.7L-55.5-287z"/>
		</g>
		<g transform="matrix(1.09 0 0 1.09 -135.69 -142.37)">
			<path vector-effect="non-scaling-stroke" class="st9" d="M-54-284l-0.3-4.7l18.9-6.8l0.3,4.2L-54-284z"/>
		</g>
		<g transform="matrix(1.09 0 0 1.09 -147.44 -139.52)">
			<path vector-effect="non-scaling-stroke" class="st16" d="M-43.5-291.4l0.3,4.8l-2.7-1.9l-0.3-4.4L-43.5-291.4z"/>
		</g>
		<g transform="matrix(1.09 0 0 1.09 -145.49 -151.54)">
			<path vector-effect="non-scaling-stroke" class="st8" d="M-55.5-287l2.7,1.6l18.9-6.9l-2.8-1.7L-55.5-287z"/>
		</g>
		<g transform="matrix(1.09 0 0 1.09 -143.85 -148.05)">
			<path vector-effect="non-scaling-stroke" class="st9" d="M-54-284l-0.3-4.7l18.9-6.8l0.3,4.2L-54-284z"/>
		</g>
		<g transform="matrix(1.09 0 0 1.09 -155.6 -145.2)">
			<path vector-effect="non-scaling-stroke" class="st16" d="M-43.5-291.4l0.3,4.8l-2.7-1.9l-0.3-4.4L-43.5-291.4z"/>
		</g>
		<g transform="matrix(1.09 0 0 1.09 14.25 -151.15)">
			<path vector-effect="non-scaling-stroke" class="st8" d="M-55.5-287l2.7,1.6l18.9-6.9l-2.8-1.7L-55.5-287z"/>
		</g>
		<g transform="matrix(1.09 0 0 1.09 15.87 -147.66)">
			<path vector-effect="non-scaling-stroke" class="st9" d="M-54-284l-0.3-4.7l18.9-6.8l0.3,4.2L-54-284z"/>
		</g>
		<g transform="matrix(1.09 0 0 1.09 4.12 -144.81)">
			<path vector-effect="non-scaling-stroke" class="st16" d="M-43.5-291.4l0.3,4.8l-2.7-1.9l-0.3-4.4L-43.5-291.4z"/>
		</g>
		<g transform="matrix(1.09 0 0 1.09 6.09 -156.84)">
			<path vector-effect="non-scaling-stroke" class="st8" d="M-55.5-287l2.7,1.6l18.9-6.9l-2.8-1.7L-55.5-287z"/>
		</g>
		<g transform="matrix(1.09 0 0 1.09 7.71 -153.35)">
			<path vector-effect="non-scaling-stroke" class="st9" d="M-54-284l-0.3-4.7l18.9-6.8l0.3,4.2L-54-284z"/>
		</g>
		<g transform="matrix(1.09 0 0 1.09 -4.04 -150.5)">
			<path vector-effect="non-scaling-stroke" class="st16" d="M-43.5-291.4l0.3,4.8l-2.7-1.9l-0.3-4.4L-43.5-291.4z"/>
		</g>
		<g transform="matrix(1.09 0 0 1.09 -108.67 -121.46)">
			<path vector-effect="non-scaling-stroke" class="st23" d="M-74.5-276l-0.2-3.7l59.9-23.8l0.2,3.3L-74.5-276z"/>
		</g>
		<g transform="matrix(1.09 0 0 1.09 -108.45 -117.42)">
			<path vector-effect="non-scaling-stroke" class="st24" d="M-74.6-275.5l-0.3-4.2l60.1-24.2l0.2,3.8L-74.6-275.5z"/>
		</g>
		<g transform="matrix(1.09 0 0 1.09 -108.24 -113.98)">
			<path vector-effect="non-scaling-stroke" class="st23" d="M-74.7-276l-0.2-2.8l60.1-24.7l0.2,2.5L-74.7-276z"/>
		</g>
		<g transform="matrix(1.09 0 0 1.09 -108.02 -110.18)">
			<path vector-effect="non-scaling-stroke" class="st24" d="M-74.6-274.9l-0.3-4.8l60.1-24.8l0.2,4L-74.6-274.9z"/>
		</g>
		<g transform="matrix(1.09 0 0 1.09 -107.78 -106.79)">
			<path vector-effect="non-scaling-stroke" class="st23" d="M-74.6-275.5l-0.2-2.7l60-25.8l0.2,2.9L-74.6-275.5z"/>
		</g>
		<g transform="matrix(1.09 0 0 1.09 -119.5 -69.9)">
			<path vector-effect="non-scaling-stroke" class="st4" d="M-21.8-275.4l-0.1,4.3l-45.8-34.8v-2.5L-21.8-275.4z"/>
		</g>
		<g transform="matrix(1.09 0 0 1.09 -182.79 -162.45)">
			<path vector-effect="non-scaling-stroke" class="st12" d="M-45.4-293.5l0.9-0.1l0.5,7.5l-1,0.1L-45.4-293.5z"/>
		</g>
		<g transform="matrix(1.09 0 0 1.09 -183.3 -169.87)">
			<path vector-effect="non-scaling-stroke" class="st13" d="M-40.1-290c0.2,2.5-1.8,4.7-4.4,4.9c-2.6,0.2-4.8-1.8-4.9-4.3
				c-0.2-2.5,1.8-4.7,4.4-4.9C-42.4-294.5-40.2-292.6-40.1-290z"/>
		</g>
		<g transform="matrix(1.09 0 0 1.09 -185.54 -158.09)">
			<path vector-effect="non-scaling-stroke" class="st14" d="M-41.4-290l-1-0.3l-5.6,0.7l0.6,0.3L-41.4-290z"/>
		</g>
		<g transform="matrix(1.09 0 0 1.09 -192.73 -157.5)">
			<path vector-effect="non-scaling-stroke" class="st15" d="M-40-290.2c0.1,1-2,1.9-4.6,2.2c-2.6,0.2-4.8-0.4-4.9-1.3
				c-0.1-1,2-1.9,4.6-2.2C-42.2-291.7-40-291.1-40-290.2z"/>
		</g>
		<g transform="matrix(1.09 0 0 1.09 -205.93 -136.13)">
			<path vector-effect="non-scaling-stroke" class="st12" d="M-45.4-293.5l0.9-0.1l0.5,7.5l-1,0.1L-45.4-293.5z"/>
		</g>
		<g transform="matrix(1.09 0 0 1.09 -206.42 -143.55)">
			<path vector-effect="non-scaling-stroke" class="st13" d="M-40.1-290c0.2,2.5-1.8,4.7-4.4,4.9s-4.8-1.8-4.9-4.3
				c-0.2-2.5,1.8-4.7,4.4-4.9C-42.4-294.5-40.2-292.6-40.1-290z"/>
		</g>
		<g transform="matrix(1.09 0 0 1.09 -208.67 -131.79)">
			<path vector-effect="non-scaling-stroke" class="st14" d="M-41.4-290l-1-0.3l-5.6,0.7l0.6,0.3L-41.4-290z"/>
		</g>
		<g transform="matrix(1.09 0 0 1.09 -215.86 -131.19)">
			<path vector-effect="non-scaling-stroke" class="st15" d="M-40-290.2c0.1,1-2,1.9-4.6,2.2c-2.6,0.2-4.8-0.4-4.9-1.3
				c-0.1-1,2-1.9,4.6-2.2C-42.2-291.7-40-291.1-40-290.2z"/>
		</g>
		<g transform="matrix(1.09 0 0 1.09 -66 21.66)">
			<path vector-effect="non-scaling-stroke" class="st12" d="M-45.5-294.2l1.1-0.1l0.5,8.9l-1.1,0.1L-45.5-294.2z"/>
		</g>
		<g transform="matrix(1.09 0 0 1.09 -66.61 12.85)">
			<path vector-effect="non-scaling-stroke" class="st13" d="M-39.2-290.1c0.2,3-2.1,5.6-5.2,5.8c-3.1,0.2-5.7-2.1-5.9-5.1
				s2.1-5.6,5.2-5.8S-39.4-293.1-39.2-290.1z"/>
		</g>
		<g transform="matrix(1.09 0 0 1.09 -69.27 26.83)">
			<path vector-effect="non-scaling-stroke" class="st14" d="M-40.8-290l-1.2-0.3l-6.6,0.8l0.8,0.4L-40.8-290z"/>
		</g>
		<g transform="matrix(1.09 0 0 1.09 -77.98 27.53)">
			<path vector-effect="non-scaling-stroke" class="st14" d="M-39.1-290.2c0.1,1.1-2.3,2.3-5.5,2.6c-3.1,0.3-5.7-0.4-5.8-1.6
				c-0.1-1.1,2.3-2.3,5.5-2.6C-41.8-292.1-39.2-291.4-39.1-290.2z"/>
		</g>
		<g transform="matrix(1.09 0 0 1.09 287.36 -108.49)">
			<path vector-effect="non-scaling-stroke" class="st12" d="M-45.4-293.5l1-0.1l0.5,7.7l-1,0.1L-45.4-293.5z"/>
		</g>
		<g transform="matrix(1.09 0 0 1.09 286.85 -116.07)">
			<path vector-effect="non-scaling-stroke" class="st13" d="M-39.9-290c0.2,2.6-1.8,4.8-4.5,5c-2.6,0.2-4.9-1.8-5.1-4.4
				c-0.2-2.6,1.8-4.8,4.5-5C-42.4-294.6-40.1-292.6-39.9-290z"/>
		</g>
		<g transform="matrix(1.09 0 0 1.09 284.56 -104.04)">
			<path vector-effect="non-scaling-stroke" class="st14" d="M-41.4-290l-1-0.3l-5.7,0.7l0.7,0.3L-41.4-290z"/>
		</g>
		<g transform="matrix(1.09 0 0 1.09 277.05 -103.44)">
			<path vector-effect="non-scaling-stroke" class="st14" d="M-39.9-290.2c0.1,1-2,2-4.7,2.2s-4.9-0.4-5-1.3c-0.1-1,2-2,4.7-2.2
				C-42.2-291.8-39.9-291.2-39.9-290.2z"/>
		</g>
		<g transform="matrix(1.09 0 0 1.09 -149.69 -96.6)">
			<path vector-effect="non-scaling-stroke" class="st12" d="M-45.6-294.2l1.1-0.1l0.5,8.9l-1.1,0.1L-45.6-294.2z"/>
		</g>
		<g transform="matrix(1.09 0 0 1.09 -150.28 -105.4)">
			<path vector-effect="non-scaling-stroke" class="st13" d="M-39.2-290.1c0.2,3-2.1,5.6-5.2,5.8c-3.1,0.2-5.7-2.1-5.9-5.1
				s2.1-5.6,5.2-5.8S-39.4-293.1-39.2-290.1z"/>
		</g>
		<g transform="matrix(1.09 0 0 1.09 -152.95 -91.43)">
			<path vector-effect="non-scaling-stroke" class="st14" d="M-40.8-290l-1.2-0.3l-6.6,0.8l0.8,0.4L-40.8-290z"/>
		</g>
		<g transform="matrix(1.09 0 0 1.09 -161.66 -90.72)">
			<path vector-effect="non-scaling-stroke" class="st14" d="M-39.1-290.2c0.1,1.1-2.3,2.3-5.5,2.6c-3.1,0.3-5.7-0.4-5.8-1.6
				c-0.1-1.1,2.3-2.3,5.5-2.6C-41.8-292.1-39.2-291.4-39.1-290.2z"/>
		</g>
		<g transform="matrix(1.09 0 0 1.09 -220.55 -47.1)">
			<path vector-effect="non-scaling-stroke" class="st3" d="M-74.2-314.3l-0.3-4.4l59.1,53.3l0.3,4.7L-74.2-314.3z"/>
		</g>
		<g transform="matrix(1.09 0 0 1.09 -220.17 -42.25)">
			<path vector-effect="non-scaling-stroke" class="st4" d="M-74.2-314.3l-0.3-4.4l59.1,53.3l0.3,4.7L-74.2-314.3z"/>
		</g>
		<g transform="matrix(1.09 0 0 1.09 -220.04 -37.62)">
			<path vector-effect="non-scaling-stroke" class="st3" d="M-74.2-314.3l-0.3-4.4l59.1,53.3l0.3,4.7L-74.2-314.3z"/>
		</g>
		<g transform="matrix(1.09 0 0 1.09 -219.61 -30.53)">
			<path vector-effect="non-scaling-stroke" class="st3" d="M-74.2-314.3l-0.3-4.4l59.1,53.3l0.3,4.7L-74.2-314.3z"/>
		</g>
		<g transform="matrix(1.09 0 0 1.09 -219.67 -32.77)">
			<path vector-effect="non-scaling-stroke" class="st4" d="M-74.2-314.3l-0.3-4.4l59.1,53.3l0.3,4.7L-74.2-314.3z"/>
		</g>
		<g transform="matrix(1.09 0 0 1.09 -147.46 -35.89)">
			<path vector-effect="non-scaling-stroke" class="st25" d="M-82.4-275.7l0.3,4.3l75-32.9l-0.2-3.8L-82.4-275.7z"/>
		</g>
		<g transform="matrix(1.09 0 0 1.09 -147.19 -31.38)">
			<path vector-effect="non-scaling-stroke" class="st26" d="M-82.4-275.6l0.3,4.5l75-33.5l-0.2-3.8L-82.4-275.6z"/>
		</g>
		<g transform="matrix(1.09 0 0 1.09 -146.91 -26.87)">
			<path vector-effect="non-scaling-stroke" class="st25" d="M-82.3-275.3l0.3,4.6l75-34.2l-0.2-3.8L-82.3-275.3z"/>
		</g>
		<g transform="matrix(1.09 0 0 1.09 -146.47 -19.63)">
			<path vector-effect="non-scaling-stroke" class="st25" d="M-82.3-275.3l0.3,4.6l75-34.2l-0.2-3.8L-82.3-275.3z"/>
		</g>
		<g transform="matrix(1.09 0 0 1.09 -146.63 -22.29)">
			<path vector-effect="non-scaling-stroke" class="st26" d="M-82.3-275.1l0.3,4.7l74.9-34.9l-0.2-3.8L-82.3-275.1z"/>
		</g>
		<g transform="matrix(1.09 0 0 1.09 -179.67 -60.08)">
			<path vector-effect="non-scaling-stroke" class="st7" d="M-66.1-323.7l-45.7,16.9l59.1,53.6l75.2-32.7L-27-322.5l-2.3-3.5
				l-32.4-0.4L-66.1-323.7z"/>
		</g>
		<g transform="matrix(1.09 0 0 1.09 -197.67 1)">
			<path vector-effect="non-scaling-stroke" class="st12" d="M-45.6-294.1l1.1-0.1l0.5,8.9l-1.1,0.1L-45.6-294.1z"/>
		</g>
		<g transform="matrix(1.09 0 0 1.09 -198.26 -7.82)">
			<path vector-effect="non-scaling-stroke" class="st13" d="M-39.2-290.1c0.2,3-2.1,5.6-5.2,5.8c-3.1,0.2-5.7-2.1-5.9-5.1
				s2.1-5.6,5.2-5.8S-39.4-293.1-39.2-290.1z"/>
		</g>
		<g transform="matrix(1.09 0 0 1.09 -200.93 6.15)">
			<path vector-effect="non-scaling-stroke" class="st14" d="M-40.8-290l-1.2-0.3l-6.6,0.8l0.8,0.4L-40.8-290z"/>
		</g>
		<g transform="matrix(1.09 0 0 1.09 -209.63 6.87)">
			<path vector-effect="non-scaling-stroke" class="st14" d="M-39.1-290.2c0.1,1.1-2.3,2.3-5.5,2.6c-3.1,0.3-5.7-0.4-5.8-1.6
				c-0.1-1.1,2.3-2.3,5.5-2.6C-41.8-292.1-39.2-291.4-39.1-290.2z"/>
		</g>
		<g transform="matrix(1.09 0 0 1.09 -17.48 12.6)">
			<path vector-effect="non-scaling-stroke" class="st2" d="M-36.4-280.8l-20.4-15.9c-0.4-0.5-0.9-1.5,0.5-2.1s2.6,0.1,3,0.5
				c6,4.7,18.3,14.2,19.4,15c1.4,1,2.4,2.3,0.9,2.8C-34.2-280.2-35.8-280.6-36.4-280.8z"/>
		</g>
		<g transform="matrix(1.09 0 0 1.09 -24.48 4.13)">
			<path vector-effect="non-scaling-stroke" class="st12" d="M-45.3-293l0.8-0.1l0.4,6.5l-0.8,0.1L-45.3-293z"/>
		</g>
		<g transform="matrix(1.09 0 0 1.09 -24.91 -2.3)">
			<path vector-effect="non-scaling-stroke" class="st13" d="M-40.7-290c0.1,2.2-1.6,4.1-3.8,4.2s-4.1-1.5-4.3-3.7
				c-0.1-2.2,1.6-4.1,3.8-4.2C-42.7-293.8-40.8-292.2-40.7-290z"/>
		</g>
		<g transform="matrix(1.09 0 0 1.09 -26.85 7.89)">
			<path vector-effect="non-scaling-stroke" class="st14" d="M-41.9-289.9l-0.9-0.2l-4.8,0.6l0.6,0.3L-41.9-289.9z"/>
		</g>
		<g transform="matrix(1.09 0 0 1.09 -33.21 8.41)">
			<path vector-effect="non-scaling-stroke" class="st14" d="M-40.6-290.1c0.1,0.8-1.7,1.7-4,1.9c-2.3,0.2-4.2-0.3-4.3-1.1
				c-0.1-0.8,1.7-1.7,4-1.9C-42.6-291.5-40.7-290.9-40.6-290.1z"/>
		</g>
		<g transform="matrix(1.09 0 0 1.09 -13.61 12.27)">
			<path vector-effect="non-scaling-stroke" class="st12" d="M-45.3-293l0.8-0.1l0.4,6.5h-0.8L-45.3-293z"/>
		</g>
		<g transform="matrix(1.09 0 0 1.09 -14.05 5.85)">
			<path vector-effect="non-scaling-stroke" class="st13" d="M-40.7-290c0.1,2.2-1.6,4.1-3.8,4.2s-4.1-1.5-4.3-3.7
				c-0.1-2.2,1.6-4.1,3.8-4.2C-42.7-293.8-40.8-292.2-40.7-290z"/>
		</g>
		<g transform="matrix(1.09 0 0 1.09 -15.98 16.04)">
			<path vector-effect="non-scaling-stroke" class="st14" d="M-41.9-289.9l-0.9-0.2l-4.8,0.6l0.6,0.3L-41.9-289.9z"/>
		</g>
		<g transform="matrix(1.09 0 0 1.09 -22.35 16.56)">
			<path vector-effect="non-scaling-stroke" class="st14" d="M-40.6-290.1c0.1,0.8-1.7,1.7-4,1.9c-2.3,0.2-4.2-0.3-4.3-1.1
				c-0.1-0.8,1.7-1.7,4-1.9S-40.7-290.9-40.6-290.1z"/>
		</g>
		<g transform="matrix(1.09 0 0 1.09 -226.21 28.47)">
			<path vector-effect="non-scaling-stroke" class="st12" d="M-46.3-298l2.1-0.1l1,16.6l-2.1,0.1L-46.3-298z"/>
		</g>
		<g transform="matrix(1.09 0 0 1.09 -227.31 12.09)">
			<path vector-effect="non-scaling-stroke" class="st13" d="M-34.4-290.4c0.3,5.6-4,10.4-9.7,10.8c-5.7,0.3-10.6-3.9-10.9-9.5
				c-0.3-5.6,4-10.4,9.7-10.8C-39.7-300.2-34.8-296-34.4-290.4z"/>
		</g>
		<g transform="matrix(1.09 0 0 1.09 -232.17 39.48)">
			<path vector-effect="non-scaling-stroke" class="st14" d="M-37.6-291.5l-2.3-0.2l-11.9,3.6l1.5,0.5L-37.6-291.5z"/>
		</g>
		<g transform="matrix(1.09 0 0 1.09 -247.09 44.35)">
			<path vector-effect="non-scaling-stroke" class="st14" d="M-34.5-292.4c0.5,2.1-3.6,4.9-9.2,6.4s-10.6,1-11.2-1
				c-0.5-2.1,3.6-4.9,9.2-6.4C-40.1-295-35.1-294.5-34.5-292.4z"/>
		</g>
		<g transform="matrix(1.09 0 0 1.09 -84.07 -67.53)">
			<path vector-effect="non-scaling-stroke" class="st27" d="M-35-292.9l-0.2-2.8l-19.3,8.7l0.2,3.3L-35-292.9z"/>
		</g>
		<g transform="matrix(1.09 0 0 1.09 -55.38 -14.49)">
			<path vector-effect="non-scaling-stroke" class="st2" d="M-39-284l-14-10.2c-0.3-0.3-0.6-1,0.3-1.4s1.8,0,2.1,0.3
				c4.1,3,12.5,9.1,13.3,9.6c1,0.6,1.6,1.5,0.6,1.8C-37.5-283.6-38.6-283.8-39-284z"/>
		</g>
		<g transform="matrix(1.09 0 0 1.09 -119.5 -76.85)">
			<path vector-effect="non-scaling-stroke" class="st4" d="M-21.8-271.7v-3.7l-45.9-32.5v3.4L-21.8-271.7z"/>
		</g>
		<g transform="matrix(1.09 0 0 1.09 -61.69 -22.5)">
			<path vector-effect="non-scaling-stroke" class="st12" d="M-45.3-293h0.8l0.4,6.5l-0.8,0.1L-45.3-293z"/>
		</g>
		<g transform="matrix(1.09 0 0 1.09 -62.12 -28.93)">
			<path vector-effect="non-scaling-stroke" class="st13" d="M-40.7-290c0.1,2.2-1.6,4.1-3.8,4.2s-4.1-1.5-4.3-3.7
				c-0.1-2.2,1.6-4.1,3.8-4.2C-42.7-293.8-40.8-292.2-40.7-290z"/>
		</g>
		<g transform="matrix(1.09 0 0 1.09 -64.06 -18.73)">
			<path vector-effect="non-scaling-stroke" class="st14" d="M-41.9-289.9l-0.9-0.2l-4.8,0.6l0.6,0.3L-41.9-289.9z"/>
		</g>
		<g transform="matrix(1.09 0 0 1.09 -70.42 -18.23)">
			<path vector-effect="non-scaling-stroke" class="st14" d="M-40.6-290.1c0.1,0.8-1.7,1.7-4,1.9c-2.3,0.2-4.2-0.3-4.3-1.1
				c-0.1-0.8,1.7-1.7,4-1.9C-42.6-291.5-40.7-290.9-40.6-290.1z"/>
		</g>
		<g transform="matrix(1.09 0 0 1.09 -56.36 -18.81)">
			<path vector-effect="non-scaling-stroke" class="st12" d="M-45.3-293h0.8l0.4,6.5l-0.8,0.1L-45.3-293z"/>
		</g>
		<g transform="matrix(1.09 0 0 1.09 -56.79 -25.24)">
			<path vector-effect="non-scaling-stroke" class="st13" d="M-40.7-290c0.1,2.2-1.6,4.1-3.8,4.2s-4.1-1.5-4.3-3.7
				c-0.1-2.2,1.6-4.1,3.8-4.2C-42.7-293.8-40.8-292.2-40.7-290z"/>
		</g>
		<g transform="matrix(1.09 0 0 1.09 -58.73 -15.04)">
			<path vector-effect="non-scaling-stroke" class="st14" d="M-41.9-289.9l-0.9-0.2l-4.8,0.6l0.6,0.3L-41.9-289.9z"/>
		</g>
		<g transform="matrix(1.09 0 0 1.09 -65.09 -14.53)">
			<path vector-effect="non-scaling-stroke" class="st14" d="M-40.6-290.1c0.1,0.8-1.7,1.7-4,1.9c-2.3,0.2-4.2-0.3-4.3-1.1
				c-0.1-0.8,1.7-1.7,4-1.9C-42.6-291.5-40.7-290.9-40.6-290.1z"/>
		</g>
		<g transform="matrix(1.09 0 0 1.09 -219.64 -209.04)">
			<path vector-effect="non-scaling-stroke" class="st2" d="M-49.4-292.9l-5.5,7.1c0.6,0.3,3.3,0.7,8.8,0.5s7.8-2.1,8.2-3.1l3.4-5.9
				c-3.3,0-10.3-0.1-12.2-0.1C-48.6-294.3-49.3-293.4-49.4-292.9z"/>
		</g>
		<g transform="matrix(1.09 0 0 1.09 -217.41 -207.43)">
			<path vector-effect="non-scaling-stroke" class="st3" d="M-56.8-287.3l-2.7,3.2c1.1,0.1,5.2,0.2,12.6,0.3
				c7.4,0.1,12-3.6,13.3-5.5l3.7-6.4h-7c-0.2,0.5-1.1,2.1-3,4.8c-1.9,2.7-6.6,3.7-8.6,3.8L-56.8-287.3z"/>
		</g>
		<g transform="matrix(1.09 0 0 1.09 63.73 -205.93)">
			<path vector-effect="non-scaling-stroke" class="st2" d="M-267.9-291.4l2.9-5l437.4,5.7l3,3.4l3.7,4.3
				c-144.5-1.2-435.2-3.7-441.7-3.8C-269.2-287-268.9-289.9-267.9-291.4z"/>
		</g>
		<g transform="matrix(1.09 0 0 1.09 61.64 -203.92)">
			<path vector-effect="non-scaling-stroke" class="st3" d="M-261.5-298.2h-7.9c-0.3,0.4-1.6,2.2-4.3,6.4c-2.6,4.1,4.8,5.5,8.8,5.7
				l449.7,4.9l-4.8-4.7c-144.2-1-434.1-3.2-440.2-3.5c-6-0.3-5.4-3-4.3-4.3L-261.5-298.2z"/>
		</g>
		<g transform="matrix(1.09 0 0 1.09 -119.55 -80.01)">
			<path vector-effect="non-scaling-stroke" class="st3" d="M-21.7-272.3l-0.2-3.5l-45.7-31.4l0.2,3.3L-21.7-272.3z"/>
		</g>
		<g transform="matrix(1.09 0 0 1.09 -83.83 -64.14)">
			<path vector-effect="non-scaling-stroke" class="st18" d="M-34.9-292.6l-0.2-3.5l-19.3,9.1v3.6L-34.9-292.6z"/>
		</g>
		<g transform="matrix(1.09 0 0 1.09 -83.73 -60.74)">
			<path vector-effect="non-scaling-stroke" class="st27" d="M-34.9-292.3l-0.2-3.5l-19.5,9.3v2.8L-34.9-292.3z"/>
		</g>
		<g transform="matrix(1.09 0 0 1.09 -83.58 -56.59)">
			<path vector-effect="non-scaling-stroke" class="st18" d="M-34.7-291.8l-0.3-4.4l-19.8,8.6l-0.1,4.3L-34.7-291.8z"/>
		</g>
		<g transform="matrix(1.09 0 0 1.09 -83.53 -52.53)">
			<path vector-effect="non-scaling-stroke" class="st27" d="M-34.6-293l-0.2-2.7l-20,8.6v3.2L-34.6-293z"/>
		</g>
		<g transform="matrix(1.09 0 0 1.09 203.27 -121.98)">
			<path vector-effect="non-scaling-stroke" class="st28" d="M-56.5-287.6l-0.3-4.4l23.8,0.2l0.3,4.5L-56.5-287.6z"/>
		</g>
		<g transform="matrix(1.09 0 0 1.09 -119.5 -73.53)">
			<path vector-effect="non-scaling-stroke" class="st3" d="M-67.6-305.1v-2.4l45.9,32.7v2.8L-67.6-305.1z"/>
		</g>
		<g transform="matrix(1.09 0 0 1.09 -119.54 -66.82)">
			<path vector-effect="non-scaling-stroke" class="st3" d="M-21.8-273.9v3.2l-45.8-35.9v-2.1L-21.8-273.9z"/>
		</g>
		<g transform="matrix(1.09 0 0 1.09 -24.41 -87.37)">
			<path vector-effect="non-scaling-stroke" class="st27" d="M-70.6-275.8l-0.2-3.1l52.2-24.8l-0.1,3L-70.6-275.8z"/>
		</g>
		<g transform="matrix(1.09 0 0 1.09 -24.36 -83.78)">
			<path vector-effect="non-scaling-stroke" class="st29" d="M-70.4-275.5l-0.2-3.6l51.9-24.9v2.1L-70.4-275.5z"/>
		</g>
		<g transform="matrix(1.09 0 0 1.09 -24.25 -81.09)">
			<path vector-effect="non-scaling-stroke" class="st27" d="M-70.4-275.1l-0.1-2.9l51.7-26.5v1.8L-70.4-275.1z"/>
		</g>
		<g transform="matrix(1.09 0 0 1.09 -91.09 -46.04)">
			<path vector-effect="non-scaling-stroke" class="st12" d="M-44.1-294.2h-1.1v8.9h1.1V-294.2z"/>
		</g>
		<g transform="matrix(1.09 0 0 1.09 -91.04 -54.87)">
			<path vector-effect="non-scaling-stroke" class="st13" d="M-50.3-289.7c0,3,2.5,5.5,5.5,5.5c3.1,0,5.5-2.4,5.5-5.4
				s-2.5-5.5-5.5-5.5C-47.8-295.2-50.3-292.8-50.3-289.7z"/>
		</g>
		<g transform="matrix(1.09 0 0 1.09 -87.52 -41.11)">
			<path vector-effect="non-scaling-stroke" class="st14" d="M-48.6-289.8l1.2-0.4l6.7,0.4l-0.7,0.4L-48.6-289.8z"/>
		</g>
		<g transform="matrix(1.09 0 0 1.09 -78.79 -40.91)">
			<path vector-effect="non-scaling-stroke" class="st14" d="M-50.4-289.9c0,1.1,2.5,2.1,5.6,2.2s5.7-0.8,5.7-1.9s-2.5-2.1-5.6-2.2
				S-50.4-291-50.4-289.9z"/>
		</g>
		<g transform="matrix(1.09 0 0 1.09 -33.51 -66.76)">
			<path vector-effect="non-scaling-stroke" class="st12" d="M-45.2-294.2h1.1l-0.1,8.9h-1.1L-45.2-294.2z"/>
		</g>
		<g transform="matrix(1.09 0 0 1.09 -33.43 -75.6)">
			<path vector-effect="non-scaling-stroke" class="st13" d="M-39.2-289.7c0,3-2.6,5.4-5.6,5.4c-3.1,0-5.5-2.5-5.5-5.5
				s2.6-5.4,5.6-5.4C-41.6-295.1-39.1-292.7-39.2-289.7z"/>
		</g>
		<g transform="matrix(1.09 0 0 1.09 -37.14 -61.89)">
			<path vector-effect="non-scaling-stroke" class="st14" d="M-40.8-289.7l-1.2-0.4l-6.7,0.3l0.7,0.4L-40.8-289.7z"/>
		</g>
		<g transform="matrix(1.09 0 0 1.09 -45.89 -61.82)">
			<path vector-effect="non-scaling-stroke" class="st14" d="M-39-289.8c0,1.1-2.5,2.1-5.6,2.2c-3.1,0-5.7-0.9-5.7-2
				s2.5-2.1,5.6-2.2C-41.6-291.9-39.1-291-39-289.8z"/>
		</g>
		<g transform="matrix(1.09 0 0 1.09 -31.35 -134.03)">
			<path vector-effect="non-scaling-stroke" class="st3" d="M-71-299.8v-6.9l52.6,27.7v6.1L-71-299.8z"/>
		</g>
		<g transform="matrix(1.09 0 0 1.09 -224.64 -179.27)">
			<path vector-effect="non-scaling-stroke" class="st3" d="M-62.3-293.2l-3,3.3l39.1,3.6c0.2-0.5,0.9-1.9,1.8-3.1
				c1-1.2-1-1.8-2.1-2L-62.3-293.2z"/>
		</g>
		<g transform="matrix(1.09 0 0 1.09 307.3 -170.63)">
			<path vector-effect="non-scaling-stroke" class="st3" d="M-63.9-287.7l-2.8-4.8l41.2,0.9l2.8,4.6L-63.9-287.7z"/>
		</g>
		<g transform="matrix(1.09 0 0 1.09 20.18 -118.62)">
			<path vector-effect="non-scaling-stroke" class="st30" d="M-65.6-287.1v-6.1l41.8,0.5v6.3L-65.6-287.1z"/>
		</g>
		<g transform="matrix(1.09 0 0 1.09 -208.78 -45.45)">
			<path vector-effect="non-scaling-stroke" class="st10" d="M-44.1-283l-1.1-16.5l-0.2,3.1l0.2,16.4L-44.1-283z"/>
		</g>
		<g transform="matrix(1.09 0 0 1.09 -209.75 -41.95)">
			<path vector-effect="non-scaling-stroke" class="st11" d="M-44.1-283.2l-0.4-16.3l-0.2,3.1l-0.7,16.5L-44.1-283.2z"/>
		</g>
		<g transform="matrix(1.09 0 0 1.09 -210.61 -38.43)">
			<path vector-effect="non-scaling-stroke" class="st10" d="M-44.5-283.3l0.7-16.3L-44-296l-1.5,16.2L-44.5-283.3z"/>
		</g>
		<g transform="matrix(1.09 0 0 1.09 -211.68 -32.46)">
			<path vector-effect="non-scaling-stroke" class="st10" d="M-43.3-299l-1,7.5l-1.9,11.1l0.7-1.5l1.2-9.6l0.8-4.4L-43.3-299z"/>
		</g>
		<g transform="matrix(1.09 0 0 1.09 -211.31 -34.86)">
			<path vector-effect="non-scaling-stroke" class="st11" d="M-43.4-299.6l-0.4,4.3l-2.2,15.5l1.2-3.3l1-12.1l0.2-1.2L-43.4-299.6z"
				/>
		</g>
		<g transform="matrix(1.09 0 0 1.09 -217.8 -53.04)">
			<path vector-effect="non-scaling-stroke" class="st17" d="M-52.6-287.1l0.2-3.9l15.5-1.4l-0.2,3.1L-52.6-287.1z"/>
		</g>
		<g transform="matrix(1.09 0 0 1.09 -218.05 -49.27)">
			<path vector-effect="non-scaling-stroke" class="st18" d="M-52.6-286.7l0.3-4l15.6-2.2l-0.2,3.1L-52.6-286.7z"/>
		</g>
		<g transform="matrix(1.09 0 0 1.09 -218.33 -45.49)">
			<path vector-effect="non-scaling-stroke" class="st17" d="M-52.7-286.3l0.3-3.9l15.6-3l-0.2,3.5L-52.7-286.3z"/>
		</g>
		<g transform="matrix(1.09 0 0 1.09 -218.68 -38.71)">
			<path vector-effect="non-scaling-stroke" class="st17" d="M-52.6-286.4l0.1-2.2l15.7-4.4l-0.2,3.1L-52.6-286.4z"/>
		</g>
		<g transform="matrix(1.09 0 0 1.09 -218.54 -41.41)">
			<path vector-effect="non-scaling-stroke" class="st18" d="M-52.7-286l0.2-4.1l15.8-3.3l-0.2,3.1L-52.7-286z"/>
		</g>
		<g transform="matrix(1.09 0 0 1.09 -220.34 -30.38)">
			<path vector-effect="non-scaling-stroke" class="st1" d="M-51.1-294.4l-2.8,4l9.5,8.9l6.1-0.7l0.6-2.1l2-13.9L-51.1-294.4z"/>
		</g>
		<g transform="matrix(1.09 0 0 1.09 20.53 -113.24)">
			<path vector-effect="non-scaling-stroke" class="st31" d="M-65.9-287.5v-4.5h41.7l0.7,4.5H-65.9z"/>
		</g>
		<g transform="matrix(1.09 0 0 1.09 20.56 -108.77)">
			<path vector-effect="non-scaling-stroke" class="st30" d="M-66-287.4v-4.6h42.7v4.6H-66z"/>
		</g>
		<g transform="matrix(1.09 0 0 1.09 20.56 -104.77)">
			<path vector-effect="non-scaling-stroke" class="st31" d="M-66-287.9v-3.7h42.7v3.7H-66z"/>
		</g>
		<g transform="matrix(1.09 0 0 1.09 20.72 -101.33)">
			<path vector-effect="non-scaling-stroke" class="st30" d="M-66.1-288.5v-2.5h42.8v2.5H-66.1z"/>
		</g>
		<g transform="matrix(1.09 0 0 1.09 5.94 -32.82)">
			<path vector-effect="non-scaling-stroke" class="st3" d="M-79.9-314.3l-0.2-3.1l70.4,51.1l0.3,4.3L-79.9-314.3z"/>
		</g>
		<g transform="matrix(1.09 0 0 1.09 6.08 -29.36)">
			<path vector-effect="non-scaling-stroke" class="st4" d="M-79.9-314.6l-0.2-3.7l70.5,53.2l0.3,4.1L-79.9-314.6z"/>
		</g>
		<g transform="matrix(1.09 0 0 1.09 6.35 -25.01)">
			<path vector-effect="non-scaling-stroke" class="st3" d="M-79.9-315l-0.2-3.9l70.6,53.8l0.3,4.4L-79.9-315z"/>
		</g>
		<g transform="matrix(1.09 0 0 1.09 6.77 -18.04)">
			<path vector-effect="non-scaling-stroke" class="st3" d="M-79.9-315.3l-0.2-3.6l70.7,56.1l0.1,2.2L-79.9-315.3z"/>
		</g>
		<g transform="matrix(1.09 0 0 1.09 6.64 -20.88)">
			<path vector-effect="non-scaling-stroke" class="st4" d="M-80-315.3l-0.3-4.2l70.7,54.9l0.3,4.5L-80-315.3z"/>
		</g>
		<g transform="matrix(1.09 0 0 1.09 125.7 -49.76)">
			<path vector-effect="non-scaling-stroke" class="st25" d="M-119.5-250.8l0.3,4.3l149.1-82.4l0.2-4.1L-119.5-250.8z"/>
		</g>
		<g transform="matrix(1.09 0 0 1.09 125.76 -45.42)">
			<path vector-effect="non-scaling-stroke" class="st26" d="M-119.3-250.5l0.3,4.4l148.9-83.3v-3.9L-119.3-250.5z"/>
		</g>
		<g transform="matrix(1.09 0 0 1.09 125.91 -41.07)">
			<path vector-effect="non-scaling-stroke" class="st25" d="M-119.2-250.3l0.3,4.6L29.7-330l0.1-3.7L-119.2-250.3z"/>
		</g>
		<g transform="matrix(1.09 0 0 1.09 126.17 -34.28)">
			<path vector-effect="non-scaling-stroke" class="st25" d="M-119-249l0.2,3.2l148.3-85l0.1-2.9L-119-249z"/>
		</g>
		<g transform="matrix(1.09 0 0 1.09 126.09 -37.1)">
			<path vector-effect="non-scaling-stroke" class="st26" d="M-119.1-249.7l0.3,4.5l148.5-85l-0.1-4.2L-119.1-249.7z"/>
		</g>
		<g transform="matrix(1.09 0 0 1.09 87.17 -70.07)">
			<path vector-effect="non-scaling-stroke" class="st7" d="M-152.2-300.8l-2.5,17.5l70.6,51.4l149.4-82.3L-6-346.8l-44.1-0.8
				l-51.8,23.5L-152.2-300.8z"/>
		</g>
		<g transform="matrix(1.09 0 0 1.09 39.68 14.37)">
			<path vector-effect="non-scaling-stroke" class="st12" d="M-45.2-294.2h1.1l-0.1,8.9h-1.1L-45.2-294.2z"/>
		</g>
		<g transform="matrix(1.09 0 0 1.09 39.73 5.55)">
			<path vector-effect="non-scaling-stroke" class="st13" d="M-39.2-289.7c0,3-2.5,5.4-5.6,5.4s-5.5-2.5-5.5-5.5s2.5-5.4,5.6-5.4
				C-41.6-295.2-39.1-292.7-39.2-289.7z"/>
		</g>
		<g transform="matrix(1.09 0 0 1.09 36.06 19.27)">
			<path vector-effect="non-scaling-stroke" class="st14" d="M-40.8-289.7l-1.2-0.4l-6.7,0.3l0.7,0.4L-40.8-289.7z"/>
		</g>
		<g transform="matrix(1.09 0 0 1.09 27.32 19.37)">
			<path vector-effect="non-scaling-stroke" class="st14" d="M-39-289.8c0,1.1-2.5,2.1-5.6,2.2s-5.7-0.8-5.7-2
				c0-1.1,2.5-2.1,5.6-2.2C-41.6-291.9-39.1-291-39-289.8z"/>
		</g>
		<g transform="matrix(1.09 0 0 1.09 -24.63 -93.77)">
			<path vector-effect="non-scaling-stroke" class="st27" d="M-71.1-279.6l0.2,3.1l52.5-23.4l-0.2-3.1L-71.1-279.6z"/>
		</g>
		<g transform="matrix(1.09 0 0 1.09 -70.35 -97.45)">
			<path vector-effect="non-scaling-stroke" class="st7" d="M-47.7-268l-19.5,8.4l-45.6-31.4l70.4-28.9l29.7,0.7l36.1,19.8
				L-29.1-276l-15.4-1.5L-47.7-268z"/>
		</g>
		<g transform="matrix(1.09 0 0 1.09 -24.51 -90.19)">
			<path vector-effect="non-scaling-stroke" class="st29" d="M-70.7-276.3l-0.2-3.5l52.4-23.4v2.2L-70.7-276.3z"/>
		</g>
		<g transform="matrix(1.09 0 0 1.09 -100.15 -111.3)">
			<path vector-effect="non-scaling-stroke" class="st8" d="M-80.5-277.2h-1.6v-4.5h-1.5v-1.3h4.5v1.3h-1.5V-277.2z"/>
		</g>
		<g transform="matrix(1.09 0 0 1.09 -96.25 -111.44)">
			<path vector-effect="non-scaling-stroke" class="st8" d="M-80.3-283.4v0.9c0,0.3,0,0.6,0,0.9s0,0.4,0,0.6l0,0
				c0.1-0.1,0.1-0.3,0.3-0.4c0.1-0.1,0.3-0.1,0.4-0.1s0.3,0,0.4,0c0.3,0,0.6,0,0.9,0.1c0.3,0.1,0.4,0.3,0.6,0.6
				c0.1,0.3,0.1,0.6,0.1,1v2.9h-1.6v-2.5c0-0.3,0-0.6-0.1-0.7s-0.3-0.3-0.4-0.3s-0.3,0-0.4,0.1s-0.1,0.3-0.3,0.4c0,0.1,0,0.4,0,0.7
				v2h-1.6v-6.3H-80.3z"/>
		</g>
		<g transform="matrix(1.09 0 0 1.09 -92.28 -110.8)">
			<path vector-effect="non-scaling-stroke" class="st8" d="M-77.9-282.4c0.4,0,0.9,0.1,1.2,0.3c0.3,0.1,0.6,0.4,0.7,0.7
				c0.1,0.3,0.3,0.7,0.3,1.2v0.7h-2.8c0,0.3,0.1,0.4,0.3,0.6c0.1,0.1,0.4,0.3,0.7,0.3c0.3,0,0.6,0,0.7-0.1c0.3,0,0.4-0.1,0.7-0.3
				v1.2c-0.3,0.1-0.4,0.1-0.7,0.3c-0.3,0-0.6,0.1-1,0.1s-0.9-0.1-1.2-0.3c-0.3-0.1-0.6-0.4-0.9-0.7c-0.1-0.3-0.3-0.7-0.3-1.3
				s0.1-1,0.3-1.3c0.1-0.3,0.4-0.6,0.7-0.7C-78.8-282.2-78.4-282.4-77.9-282.4z M-77.8-281.2c-0.1,0-0.3,0-0.4,0.1s-0.1,0.3-0.1,0.6
				h1.3c0-0.1,0-0.3-0.1-0.4c0-0.1-0.1-0.1-0.3-0.3C-77.6-281.2-77.6-281.2-77.8-281.2z"/>
		</g>
		<g transform="matrix(1.09 0 0 1.09 -86.98 -111.31)">
			<path vector-effect="non-scaling-stroke" class="st8" d="M-74-277.2h-3.5v-5.8h3.5v1.3h-1.9v0.9h1.7v1.3h-1.7v1.2h1.9V-277.2z"/>
		</g>
		<g transform="matrix(1.09 0 0 1.09 -83.46 -111.43)">
			<path vector-effect="non-scaling-stroke" class="st8" d="M-74.8-277.1c-0.4,0-0.9-0.1-1.2-0.6s-0.4-1-0.4-1.7s0.1-1.3,0.4-1.7
				c0.3-0.4,0.7-0.6,1.2-0.6c0.1,0,0.4,0,0.6,0.1c0.1,0,0.3,0.1,0.4,0.3c0.1,0.1,0.1,0.1,0.3,0.3l0,0c0-0.1,0-0.3,0-0.4
				c0-0.1,0-0.4,0-0.6v-1.2h1.6v6.3h-1.3l-0.3-0.6l0,0c0,0.1-0.1,0.3-0.3,0.3c-0.1,0.1-0.3,0.1-0.4,0.3
				C-74.5-277.1-74.7-277.1-74.8-277.1z M-74.3-278.3c0.3,0,0.4-0.1,0.6-0.3c0.1-0.1,0.1-0.4,0.1-0.7v-0.1c0-0.3,0-0.6-0.1-0.9
				c-0.1-0.1-0.3-0.3-0.6-0.3c-0.1,0-0.3,0.1-0.4,0.3c-0.1,0.1-0.1,0.4-0.1,0.9c0,0.4,0,0.6,0.1,0.9
				C-74.5-278.4-74.4-278.3-74.3-278.3z"/>
		</g>
		<g transform="matrix(1.09 0 0 1.09 -77.55 -111.34)">
			<path vector-effect="non-scaling-stroke" class="st8" d="M-70.6-277.2l-0.3-1.2h-1.9l-0.3,1.2h-1.7l1.9-6h2.2l1.9,6H-70.6z
				 M-71.2-279.7l-0.3-1c0-0.1,0-0.3-0.1-0.4c0-0.1-0.1-0.4-0.1-0.6s-0.1-0.4-0.1-0.6c0,0.1,0,0.3-0.1,0.4c0,0.1-0.1,0.4-0.1,0.6
				s-0.1,0.3-0.1,0.4l-0.3,1L-71.2-279.7z"/>
		</g>
		<g transform="matrix(1.09 0 0 1.09 -73.71 -110.82)">
			<path vector-effect="non-scaling-stroke" class="st8" d="M-68.4-279c0,0.3,0,0.6-0.1,0.7c-0.1,0.3-0.3,0.4-0.6,0.6
				s-0.6,0.1-1.2,0.1c-0.3,0-0.6,0-0.9,0c-0.3,0-0.6-0.1-0.7-0.1v-1.3c0.3,0.1,0.6,0.3,0.9,0.3s0.6,0.1,0.7,0.1s0.3,0,0.4,0
				s0.1-0.1,0.1-0.1s0-0.1-0.1-0.1c0,0-0.1-0.1-0.3-0.1c-0.1,0-0.3-0.1-0.6-0.3c-0.3-0.1-0.4-0.1-0.6-0.3c-0.1-0.1-0.3-0.3-0.4-0.4
				c-0.1-0.1-0.1-0.4-0.1-0.6c0-0.4,0.1-0.7,0.6-1c0.3-0.3,0.7-0.3,1.3-0.3c0.3,0,0.6,0,0.9,0.1c0.3,0,0.6,0.1,0.9,0.3l-0.4,1
				c-0.3-0.1-0.4-0.1-0.7-0.3c-0.3,0-0.4-0.1-0.6-0.1c-0.1,0-0.1,0-0.3,0l-0.1,0.1v0.1c0,0,0.1,0.1,0.3,0.1c0.1,0,0.3,0.1,0.6,0.3
				c0.3,0.1,0.4,0.3,0.7,0.3c0.1,0.1,0.3,0.3,0.4,0.4C-68.4-279.6-68.4-279.3-68.4-279z"/>
		</g>
		<g transform="matrix(1.09 0 0 1.09 -70.04 -110.86)">
			<path vector-effect="non-scaling-stroke" class="st8" d="M-68.1-282.2c0.4,0,0.9,0.1,1.2,0.4c0.3,0.3,0.4,0.7,0.4,1.3v2.9h-1.6
				v-2.5c0-0.3,0-0.6-0.1-0.7s-0.3-0.3-0.4-0.3c-0.3,0-0.4,0.1-0.6,0.4c-0.1,0.3-0.1,0.6-0.1,1v2H-71v-4.5h1.2l0.1,0.6l0,0
				c0.1-0.1,0.1-0.3,0.3-0.4c0.1-0.1,0.3-0.1,0.4-0.3C-68.5-282.2-68.2-282.2-68.1-282.2z"/>
		</g>
		<g transform="matrix(1.09 0 0 1.09 -66.07 -110.83)">
			<path vector-effect="non-scaling-stroke" class="st8" d="M-67-282.4c0.4,0,0.9,0.1,1.2,0.3s0.6,0.4,0.7,0.7s0.3,0.7,0.3,1.2v0.7
				h-2.8c0,0.3,0.1,0.4,0.3,0.6c0.1,0.1,0.4,0.3,0.7,0.3c0.3,0,0.6,0,0.7-0.1c0.3,0,0.4-0.1,0.7-0.3v1.2c-0.3,0.1-0.4,0.1-0.7,0.3
				c-0.3,0-0.6,0.1-1,0.1c-0.4,0-0.9-0.1-1.2-0.3c-0.3-0.1-0.6-0.4-0.9-0.7c-0.1-0.3-0.3-0.7-0.3-1.3s0.1-1,0.3-1.3
				c0.1-0.3,0.4-0.6,0.7-0.7C-67.9-282.2-67.4-282.4-67-282.4z M-66.9-281.2c-0.1,0-0.3,0-0.4,0.1s-0.1,0.3-0.1,0.6h1.3
				c0-0.1,0-0.3-0.1-0.4c0-0.1-0.1-0.1-0.3-0.3C-66.7-281.2-66.7-281.2-66.9-281.2z"/>
		</g>
		<g transform="matrix(1.09 0 0 1.09 -62.54 -110.88)">
			<path vector-effect="non-scaling-stroke" class="st8" d="M-64.4-282.3c0.1,0,0.1,0,0.3,0c0.1,0,0.1,0,0.1,0l-0.1,1.5h-0.1
				c-0.1,0-0.1,0-0.3,0c-0.1,0-0.1,0-0.3,0s-0.3,0-0.3,0.1c-0.1,0-0.1,0.1-0.3,0.3c0,0.1-0.1,0.3-0.1,0.4v2.2h-1.6v-4.5h1.2l0.3,0.7
				h0.1c0.1-0.1,0.1-0.3,0.3-0.4c0.1-0.1,0.3-0.3,0.4-0.3C-64.8-282.3-64.7-282.3-64.4-282.3z"/>
		</g>
		<g transform="matrix(1.09 0 0 1.09 -57.88 -111.34)">
			<path vector-effect="non-scaling-stroke" class="st8" d="M-63.7-277.2h-1.6v-5.8h3.5v1.3h-1.9v1.2h1.7v1.3h-1.7L-63.7-277.2z"/>
		</g>
		<g transform="matrix(1.09 0 0 1.09 -54.49 -110.85)">
			<path vector-effect="non-scaling-stroke" class="st8" d="M-61.9-282.4c0.6,0,1,0.1,1.3,0.4c0.3,0.3,0.4,0.7,0.4,1.2v3.1h-1
				l-0.3-0.6l0,0c-0.1,0.1-0.3,0.3-0.4,0.4c-0.1,0.1-0.3,0.1-0.4,0.1s-0.4,0-0.6,0c-0.3,0-0.4,0-0.7-0.1c-0.1-0.1-0.4-0.3-0.4-0.4
				c-0.1-0.1-0.1-0.4-0.1-0.9c0-0.4,0.1-0.9,0.4-1c0.3-0.3,0.9-0.4,1.5-0.4h0.7l0,0c0-0.1,0-0.3-0.1-0.4c-0.1-0.1-0.3-0.1-0.4-0.1
				s-0.4,0-0.6,0.1c-0.3,0-0.4,0.1-0.7,0.3l-0.4-1c0.3-0.1,0.6-0.3,0.9-0.3C-62.6-282.2-62.3-282.4-61.9-282.4z M-61.6-279.8h-0.3
				c-0.3,0-0.4,0-0.6,0.1c-0.1,0.1-0.1,0.1-0.1,0.4c0,0.1,0,0.3,0.1,0.3c0.1,0.1,0.1,0.1,0.3,0.1c0.1,0,0.3,0,0.4-0.1
				s0.1-0.3,0.1-0.4C-61.6-279.3-61.6-279.8-61.6-279.8z"/>
		</g>
		<g transform="matrix(1.09 0 0 1.09 -49.38 -110.88)">
			<path vector-effect="non-scaling-stroke" class="st8" d="M-58.1-282.3c0.6,0,0.9,0.1,1.2,0.4c0.3,0.3,0.4,0.7,0.4,1.3v2.9h-1.6
				v-2.5c0-0.3,0-0.6-0.1-0.7s-0.3-0.1-0.4-0.1c-0.3,0-0.4,0.1-0.6,0.3c-0.1,0.3-0.1,0.6-0.1,0.9v2.2H-61v-2.5c0-0.3,0-0.4,0-0.6
				s-0.1-0.3-0.1-0.3c-0.1,0-0.1-0.1-0.3-0.1c-0.1,0-0.3,0-0.4,0.1s-0.1,0.3-0.1,0.4c0,0.1,0,0.4,0,0.7v2h-1.6v-4.5h1.2l0.3,0.6l0,0
				c0.1-0.1,0.1-0.3,0.3-0.3c0.1-0.1,0.3-0.1,0.4-0.3c0.1,0,0.4-0.1,0.6-0.1c0.3,0,0.6,0,0.9,0.1c0.1,0.1,0.4,0.3,0.6,0.4l0,0
				c0.1-0.1,0.3-0.3,0.6-0.4C-58.6-282.3-58.4-282.3-58.1-282.3z"/>
		</g>
		<g transform="matrix(1.09 0 0 1.09 -45.29 -111.55)">
			<path vector-effect="non-scaling-stroke" class="st8" d="M-57.6-281.7v4.5h-1.6v-4.5H-57.6z M-58.3-283.4c0.3,0,0.4,0,0.6,0.1
				c0.1,0.1,0.3,0.3,0.3,0.6c0,0.3-0.1,0.4-0.3,0.6c-0.1,0.1-0.3,0.1-0.6,0.1c-0.3,0-0.4,0-0.6-0.1c-0.1-0.1-0.3-0.3-0.3-0.6
				c0-0.3,0.1-0.4,0.3-0.6C-58.8-283.4-58.6-283.4-58.3-283.4z"/>
		</g>
		<g transform="matrix(1.09 0 0 1.09 -43.3 -111.5)">
			<path vector-effect="non-scaling-stroke" class="st8" d="M-56.8-277.1h-1.6v-6.3h1.6V-277.1z"/>
		</g>
		<g transform="matrix(1.09 0 0 1.09 -40.43 -110.12)">
			<path vector-effect="non-scaling-stroke" class="st8" d="M-58.8-283h1.6l0.7,2.6v0.1v0.1v0.1l0,0c0-0.1,0-0.1,0-0.3s0-0.1,0-0.1
				l0.7-2.6h1.6l-1.7,4.8c-0.1,0.4-0.3,0.7-0.4,0.9c-0.1,0.3-0.4,0.4-0.7,0.6c-0.3,0.1-0.6,0.1-1,0.1c-0.1,0-0.3,0-0.4,0
				c-0.1,0-0.1,0-0.3,0v-1.2h0.1c0.1,0,0.1,0,0.3,0c0.1,0,0.3,0,0.4-0.1c0.1,0,0.1-0.1,0.3-0.3c0-0.1,0.1-0.3,0.1-0.4l0,0L-58.8-283
				z"/>
		</g>
		<g transform="matrix(1.09 0 0 1.09 -34.86 -111.37)">
			<path vector-effect="non-scaling-stroke" class="st8" d="M-53.5-281.9c-0.1,0-0.3,0-0.4,0.1s-0.3,0.1-0.4,0.3
				c-0.1,0.1-0.1,0.3-0.3,0.6c0,0.1-0.1,0.4-0.1,0.7c0,0.4,0,0.7,0.1,0.9c0.1,0.3,0.3,0.4,0.4,0.6s0.4,0.1,0.7,0.1
				c0.3,0,0.6,0,0.7-0.1c0.3-0.1,0.4-0.1,0.7-0.3v1.3c-0.3,0.1-0.6,0.1-0.7,0.3c-0.3,0-0.6,0.1-0.9,0.1c-0.6,0-1.2-0.1-1.6-0.4
				c-0.4-0.3-0.7-0.6-0.9-1c-0.1-0.4-0.3-1-0.3-1.6c0-0.4,0-0.9,0.1-1.2c0.1-0.4,0.3-0.7,0.6-1c0.3-0.3,0.6-0.4,0.9-0.6
				c0.3-0.1,0.7-0.3,1.2-0.3c0.3,0,0.6,0,0.9,0.1c0.3,0,0.6,0.1,0.9,0.3l-0.4,1.3c-0.1-0.1-0.4-0.1-0.6-0.3
				C-53-281.9-53.2-281.9-53.5-281.9z"/>
		</g>
		<g transform="matrix(1.09 0 0 1.09 -31.01 -110.87)">
			<path vector-effect="non-scaling-stroke" class="st8" d="M-52.4-282.4c0.4,0,0.9,0.1,1.2,0.3c0.3,0.1,0.6,0.4,0.7,0.7
				s0.3,0.7,0.3,1.2v0.7h-2.8c0,0.3,0.1,0.4,0.3,0.6c0.1,0.1,0.4,0.3,0.7,0.3c0.3,0,0.6,0,0.7-0.1c0.3,0,0.4-0.1,0.7-0.3v1.2
				c-0.3,0.1-0.4,0.1-0.7,0.3c-0.3,0-0.6,0.1-1,0.1s-0.9-0.1-1.2-0.3c-0.3-0.1-0.6-0.4-0.9-0.7c-0.1-0.3-0.3-0.7-0.3-1.3
				s0.1-1,0.3-1.3c0.1-0.3,0.4-0.6,0.7-0.7C-53.2-282.2-52.8-282.4-52.4-282.4z M-52.2-281.2c-0.1,0-0.3,0-0.4,0.1s-0.1,0.3-0.1,0.6
				h1.3c0-0.1,0-0.3-0.1-0.4c0-0.1-0.1-0.1-0.3-0.3C-52.1-281.2-52.1-281.2-52.2-281.2z"/>
		</g>
		<g transform="matrix(1.09 0 0 1.09 -27.02 -110.9)">
			<path vector-effect="non-scaling-stroke" class="st8" d="M-50.1-282.3c0.4,0,0.9,0.1,1.2,0.4c0.3,0.3,0.4,0.7,0.4,1.3v2.9h-1.6
				v-2.5c0-0.3,0-0.6-0.1-0.7s-0.3-0.3-0.4-0.3c-0.3,0-0.4,0.1-0.6,0.4c-0.1,0.3-0.1,0.6-0.1,1v2H-53v-4.5h1.2l0.1,0.6l0,0
				c0.1-0.1,0.1-0.3,0.3-0.4c0.1-0.1,0.3-0.1,0.4-0.3C-50.6-282.3-50.3-282.3-50.1-282.3z"/>
		</g>
		<g transform="matrix(1.09 0 0 1.09 -23.55 -111.19)">
			<path vector-effect="non-scaling-stroke" class="st8" d="M-48.4-278.6c0.1,0,0.3,0,0.4,0s0.3,0,0.4-0.1v1.2
				c-0.1,0.1-0.3,0.1-0.6,0.1c-0.1,0-0.4,0.1-0.7,0.1s-0.6,0-0.7-0.1c-0.3-0.1-0.4-0.3-0.6-0.4c-0.1-0.3-0.1-0.6-0.1-1v-1.9h-0.6
				v-0.6l0.7-0.4l0.4-1h1v0.9h1.2v1.2h-1.2v1.7c0,0.1,0,0.3,0.1,0.3C-48.7-278.6-48.5-278.6-48.4-278.6z"/>
		</g>
		<g transform="matrix(1.09 0 0 1.09 -20.21 -110.88)">
			<path vector-effect="non-scaling-stroke" class="st8" d="M-47.9-282.4c0.4,0,0.9,0.1,1.2,0.3s0.6,0.4,0.7,0.7
				c0.1,0.3,0.3,0.7,0.3,1.2v0.7h-2.8c0,0.3,0.1,0.4,0.3,0.6c0.1,0.1,0.4,0.3,0.7,0.3c0.3,0,0.6,0,0.7-0.1c0.3,0,0.4-0.1,0.7-0.3
				v1.2c-0.3,0.1-0.4,0.1-0.7,0.3c-0.3,0-0.6,0.1-1,0.1c-0.4,0-0.9-0.1-1.2-0.3c-0.3-0.1-0.6-0.4-0.9-0.7s-0.3-0.7-0.3-1.3
				s0.1-1,0.3-1.3c0.1-0.3,0.4-0.6,0.7-0.7C-48.7-282.3-48.3-282.4-47.9-282.4z M-47.7-281.2c-0.1,0-0.3,0-0.4,0.1s-0.1,0.3-0.1,0.6
				h1.3c0-0.1,0-0.3-0.1-0.4c0-0.1-0.1-0.1-0.3-0.3C-47.6-281.2-47.6-281.2-47.7-281.2z"/>
		</g>
		<g transform="matrix(1.09 0 0 1.09 -16.69 -110.91)">
			<path vector-effect="non-scaling-stroke" class="st8" d="M-45.2-282.3c0.1,0,0.1,0,0.3,0c0.1,0,0.1,0,0.1,0l-0.1,1.5h-0.1
				c-0.1,0-0.1,0-0.3,0c-0.1,0-0.1,0-0.3,0c-0.1,0-0.3,0-0.3,0.1c-0.1,0-0.1,0.1-0.3,0.3c0,0.1-0.1,0.3-0.1,0.4v2.2H-48v-4.5h1.2
				l0.3,0.7h0.1c0.1-0.1,0.1-0.3,0.3-0.4c0.1-0.1,0.3-0.3,0.4-0.3C-45.7-282.3-45.5-282.3-45.2-282.3z"/>
		</g>
		<g transform="matrix(1.09 0 0 1.09 -73.28 -90.07)">
			<path vector-effect="non-scaling-stroke" class="st8" d="M-41.8-289.9c0.1,1.6-1.1,3-2.7,3.1s-3-1.1-3.1-2.7s1.1-3,2.7-3.1
				C-43.3-292.7-41.9-291.5-41.8-289.9z"/>
		</g>
	</g>
</g>
</svg>
